<?xml version="1.0" encoding="UTF-8" standalone="no"?>
<svg
   width="800"
   height="160"
   viewBox="0 0 211.66666 42.333335"
   version="1.1"
   id="svg6133"
   sodipodi:docname="banner_network.svg"
   inkscape:version="1.1.2 (b8e25be833, 2022-02-05)"
   xmlns:inkscape="http://www.inkscape.org/namespaces/inkscape"
   xmlns:sodipodi="http://sodipodi.sourceforge.net/DTD/sodipodi-0.dtd"
   xmlns:xlink="http://www.w3.org/1999/xlink"
   xmlns="http://www.w3.org/2000/svg"
   xmlns:svg="http://www.w3.org/2000/svg"
   xmlns:rdf="http://www.w3.org/1999/02/22-rdf-syntax-ns#"
   xmlns:cc="http://creativecommons.org/ns#"
   xmlns:dc="http://purl.org/dc/elements/1.1/">
  <sodipodi:namedview
     pagecolor="#000000"
     bordercolor="#666666"
     borderopacity="1"
     objecttolerance="10"
     gridtolerance="10"
     guidetolerance="10"
     inkscape:pageopacity="0"
     inkscape:pageshadow="2"
     inkscape:window-width="1920"
     inkscape:window-height="1177"
     id="namedview22608"
     showgrid="false"
     inkscape:zoom="1.3904297"
     inkscape:cx="229.78508"
     inkscape:cy="121.54516"
     inkscape:window-x="1912"
     inkscape:window-y="-8"
     inkscape:window-maximized="1"
     inkscape:current-layer="svg6133"
     inkscape:pagecheckerboard="0"
     inkscape:snap-page="true" />
  <defs
     id="defs6127">
    <linearGradient
       xlink:href="#linearGradient3077"
       id="linearGradient4375"
       gradientUnits="userSpaceOnUse"
       x1="172.91336"
       y1="78.689407"
       x2="193.7847"
       y2="53.806618"
       gradientTransform="translate(-148.24051,-45.829702)" />
    <linearGradient
       id="linearGradient3077">
      <stop
         style="stop-color:#0048a5;stop-opacity:1"
         offset="0"
         id="stop3073" />
      <stop
         style="stop-color:#4b86d1;stop-opacity:1"
         offset="1"
         id="stop3075" />
    </linearGradient>
    <linearGradient
       xlink:href="#linearGradient4546"
       id="linearGradient4168"
       gradientUnits="userSpaceOnUse"
       x1="265.46716"
       y1="72.952255"
       x2="265.52728"
       y2="62.66238"
       gradientTransform="translate(-148.24047,-46.921293)" />
    <linearGradient
       id="linearGradient4546">
      <stop
         id="stop4542"
         offset="0"
         style="stop-color:#9c9c9c;stop-opacity:1" />
      <stop
         id="stop4544"
         offset="1"
         style="stop-color:#c7c7c7;stop-opacity:1" />
    </linearGradient>
    <linearGradient
       xlink:href="#linearGradient4546"
       id="linearGradient6074"
       gradientUnits="userSpaceOnUse"
       x1="265.46716"
       y1="72.952255"
       x2="265.52728"
       y2="62.66238"
       gradientTransform="translate(-139.28728,-4.15088)" />
    <linearGradient
       xlink:href="#linearGradient3077"
       id="linearGradient6082"
       gradientUnits="userSpaceOnUse"
       x1="172.91336"
       y1="78.689407"
       x2="193.7847"
       y2="53.806618"
       gradientTransform="translate(-148.2405,-45.8297)" />
    <filter
       style="color-interpolation-filters:sRGB"
       id="filter3777"
       x="-0.11323257"
       width="1.2264651"
       y="-0.10322961"
       height="1.2064592">
      <feGaussianBlur
         stdDeviation="1.1789054"
         id="feGaussianBlur3779" />
    </filter>
    <filter
       style="color-interpolation-filters:sRGB"
       id="filter3801"
       x="-0.025709525"
       width="1.0514191"
       y="-0.36093335"
       height="1.7218667">
      <feGaussianBlur
         stdDeviation="1.398881"
         id="feGaussianBlur3803" />
    </filter>
    <linearGradient
       xlink:href="#linearGradient3077"
       id="linearGradient6756"
       gradientUnits="userSpaceOnUse"
       gradientTransform="translate(-148.24051,-45.829702)"
       x1="172.91336"
       y1="78.689407"
       x2="193.7847"
       y2="53.806618" />
    <linearGradient
       gradientUnits="userSpaceOnUse"
       y2="53.806618"
       x2="193.7847"
       y1="78.689407"
       x1="172.91336"
       id="linearGradient3079"
       xlink:href="#linearGradient3077"
       gradientTransform="translate(-149.07379,19.299547)" />
    <linearGradient
       gradientUnits="userSpaceOnUse"
       y2="62.66238"
       x2="265.52728"
       y1="72.952255"
       x1="265.46716"
       id="linearGradient1695"
       xlink:href="#linearGradient2768"
       gradientTransform="translate(-148.24046,-46.92129)" />
    <linearGradient
       id="linearGradient2768">
      <stop
         id="stop2764"
         offset="0"
         style="stop-color:#414141;stop-opacity:1" />
      <stop
         id="stop2766"
         offset="1"
         style="stop-color:#767676;stop-opacity:1" />
    </linearGradient>
    <linearGradient
       y2="62.66238"
       x2="265.52728"
       y1="72.952255"
       x1="265.46716"
       gradientTransform="translate(-148.24047,-46.921293)"
       gradientUnits="userSpaceOnUse"
       id="linearGradient20105"
       xlink:href="#linearGradient2648" />
    <linearGradient
       y2="62.66238"
       x2="265.52728"
       y1="72.952255"
       x1="265.46716"
       gradientTransform="translate(-148.24046,-46.921294)"
       gradientUnits="userSpaceOnUse"
       id="linearGradient20191"
       xlink:href="#linearGradient4546" />
    <linearGradient
       inkscape:collect="always"
       id="linearGradient2648">
      <stop
         style="stop-color:#ebebeb;stop-opacity:1"
         offset="0"
         id="stop2644" />
      <stop
         style="stop-color:#ffffff;stop-opacity:1"
         offset="1"
         id="stop2646" />
    </linearGradient>
    <linearGradient
       inkscape:collect="always"
       xlink:href="#linearGradient2648"
       id="linearGradient22568"
       gradientUnits="userSpaceOnUse"
       gradientTransform="translate(624.41705)"
       x1="265.46716"
       y1="72.952255"
       x2="265.52728"
       y2="62.66238" />
    <filter
       style="color-interpolation-filters:sRGB"
       id="filter3801-5"
       x="-0.025709525"
       width="1.0514191"
       y="-0.36093335"
       height="1.7218667">
      <feGaussianBlur
         stdDeviation="1.398881"
         id="feGaussianBlur3803-3" />
    </filter>
    <linearGradient
       inkscape:collect="always"
       xlink:href="#linearGradient2648"
       id="linearGradient1009"
       gradientUnits="userSpaceOnUse"
       gradientTransform="matrix(3.7795275,0,0,3.7795275,-486.75473,-177.34033)"
       x1="265.46716"
       y1="72.952255"
       x2="265.52728"
       y2="62.66238" />
    <linearGradient
       inkscape:collect="always"
       xlink:href="#linearGradient4546"
       id="linearGradient1260"
       gradientUnits="userSpaceOnUse"
       gradientTransform="matrix(3.7795275,0,0,3.7795275,-486.75473,-177.34033)"
       x1="265.46716"
       y1="72.952255"
       x2="265.52728"
       y2="62.66238" />
    <filter
       inkscape:collect="always"
       style="color-interpolation-filters:sRGB"
       id="filter1262"
       x="-0.026194018"
       y="-0.286532"
       width="1.052388"
       height="1.573064">
      <feGaussianBlur
         inkscape:collect="always"
         stdDeviation="4.1972461"
         id="feGaussianBlur1264" />
    </filter>
    <linearGradient
       inkscape:collect="always"
       xlink:href="#linearGradient3077"
       id="linearGradient924"
       gradientUnits="userSpaceOnUse"
       gradientTransform="translate(-148.24051,-45.556942)"
       x1="172.91336"
       y1="78.689407"
       x2="193.7847"
       y2="53.806618" />
    <filter
       inkscape:collect="always"
       style="color-interpolation-filters:sRGB"
       id="filter3777-8"
       x="-0.11323257"
       width="1.2264651"
       y="-0.10322966"
       height="1.2064593">
      <feGaussianBlur
         inkscape:collect="always"
         stdDeviation="1.1789054"
         id="feGaussianBlur3779-3" />
    </filter>
    <filter
       style="color-interpolation-filters:sRGB"
       id="filter3777-2"
       x="-0.11323257"
       width="1.2264651"
       y="-0.10322961"
       height="1.2064592">
      <feGaussianBlur
         stdDeviation="1.1789054"
         id="feGaussianBlur3779-4" />
    </filter>
    <linearGradient
       inkscape:collect="always"
       xlink:href="#linearGradient3077"
       id="linearGradient1592"
       gradientUnits="userSpaceOnUse"
       gradientTransform="translate(-148.24051,-45.556942)"
       x1="172.91336"
       y1="78.689407"
       x2="193.7847"
       y2="53.806618" />
    <linearGradient
       inkscape:collect="always"
       xlink:href="#linearGradient3077"
       id="linearGradient1594"
       gradientUnits="userSpaceOnUse"
       gradientTransform="translate(-148.24051,-45.556942)"
       x1="172.91336"
       y1="78.689407"
       x2="193.7847"
       y2="53.806618" />
  </defs>
  <metadata
     id="metadata6130">
    <rdf:RDF>
      <cc:Work
         rdf:about="">
        <dc:format>image/svg+xml</dc:format>
        <dc:type
           rdf:resource="http://purl.org/dc/dcmitype/StillImage" />
      </cc:Work>
    </rdf:RDF>
  </metadata>
  <path
     id="path1258"
     style="font-size:10.5833px;line-height:1.25;font-family:'Days One';-inkscape-font-specification:'Days One';letter-spacing:0px;word-spacing:0px;fill:url(#linearGradient1260);fill-opacity:1;stroke-width:0.999999;filter:url(#filter1262)"
     d="M 412.59961 62.421875 C 410.76367 62.421875 408.99934 62.721356 407.30664 63.320312 C 405.61394 63.919267 404.20116 64.817711 403.06836 66.015625 C 401.93553 67.200517 401.36914 68.53516 401.36914 70.019531 C 401.36914 70.553382 401.54491 71.048178 401.89648 71.503906 C 402.24806 71.959634 402.73635 72.1875 403.36133 72.1875 L 405.68555 72.1875 C 406.85743 72.1875 407.73634 71.575517 408.32227 70.351562 C 409.12955 68.750005 410.7832 67.949219 413.2832 67.949219 L 414.72852 67.949219 C 416.4603 67.949219 417.71682 68.177085 418.49805 68.632812 C 419.29233 69.075519 419.68945 69.843753 419.68945 70.9375 C 419.68945 72.031247 419.29233 72.805991 418.49805 73.261719 C 417.71682 73.717447 416.4603 73.945312 414.72852 73.945312 L 411.85742 73.945312 C 411.37566 73.945313 410.95899 74.134116 410.60742 74.511719 C 410.25588 74.8763 410.08008 75.299479 410.08008 75.78125 L 410.08008 77.382812 C 410.08008 77.890622 410.26238 78.326823 410.62695 78.691406 C 410.99153 79.042968 411.42773 79.21875 411.93555 79.21875 L 415.45117 79.21875 C 417.05273 79.21875 418.2246 79.446616 418.9668 79.902344 C 419.70897 80.358072 420.08008 81.132818 420.08008 82.226562 C 420.08008 83.32031 419.70897 84.095053 418.9668 84.550781 C 418.2246 85.006509 417.05273 85.234375 415.45117 85.234375 L 412.6582 85.234375 C 410.17125 85.234375 408.58269 84.492184 407.89258 83.007812 C 407.20249 81.523443 406.25195 80.78125 405.04102 80.78125 L 402.73633 80.78125 C 402.30665 80.78125 401.86394 80.950523 401.4082 81.289062 C 400.95247 81.614583 400.72461 82.16797 400.72461 82.949219 C 400.72461 85.266918 401.87046 87.148441 404.16211 88.59375 C 406.45379 90.026037 409.05797 90.742187 411.97461 90.742188 L 416.13477 90.742188 C 419.83268 90.742188 422.63868 90.078121 424.55273 88.75 C 426.47981 87.408857 427.44336 85.234366 427.44336 82.226562 C 427.44336 79.752612 426.42122 77.87109 424.37695 76.582031 C 426.16079 75.227869 427.05273 73.359368 427.05273 70.976562 C 427.05273 65.273457 423.13344 62.421875 415.29492 62.421875 L 412.59961 62.421875 z M 275.08203 62.578125 C 274.63934 62.578125 274.29428 62.721355 274.04688 63.007812 C 273.81249 63.281259 273.69531 63.515637 273.69531 63.710938 C 273.69531 63.893232 273.73436 64.062504 273.8125 64.21875 L 285.04297 88.59375 C 285.65495 89.921871 286.58594 90.585938 287.83594 90.585938 L 290.64844 90.585938 C 291.89843 90.585938 292.82943 89.921871 293.44141 88.59375 L 304.69141 64.21875 C 304.75651 64.062509 304.78906 63.893237 304.78906 63.710938 C 304.78906 63.515627 304.67188 63.281249 304.4375 63.007812 C 304.20312 62.721355 303.85807 62.578125 303.40234 62.578125 L 299.125 62.578125 C 298.10938 62.591144 297.33463 63.209639 296.80078 64.433594 L 289.24219 81.269531 L 281.68359 64.433594 C 281.14974 63.19662 280.375 62.578125 279.35938 62.578125 L 275.08203 62.578125 z M 433.30273 62.578125 C 432.79494 62.578125 432.35874 62.760419 431.99414 63.125 C 431.62957 63.489583 431.44727 63.938803 431.44727 64.472656 L 431.44727 88.789062 C 431.44727 89.296872 431.62957 89.726563 431.99414 90.078125 C 432.35874 90.416667 432.79494 90.585937 433.30273 90.585938 L 444.2207 90.585938 C 449.87173 90.585938 453.97983 89.45963 456.54492 87.207031 C 459.12304 84.954435 460.41211 81.419256 460.41211 76.601562 C 460.41211 71.770848 459.12304 68.229158 456.54492 65.976562 C 453.97983 63.710945 449.87173 62.578125 444.2207 62.578125 L 433.30273 62.578125 z M 480.23633 62.578125 C 479.72851 62.578125 479.29881 62.760419 478.94727 63.125 C 478.59569 63.489583 478.41992 63.925784 478.41992 64.433594 L 478.41992 88.75 C 478.41992 89.25781 478.6022 89.69401 478.9668 90.058594 C 479.33137 90.410155 479.76757 90.585937 480.27539 90.585938 L 483.71289 90.585938 C 484.22071 90.585937 484.65038 90.410155 485.00195 90.058594 C 485.36653 89.69401 485.54883 89.25781 485.54883 88.75 L 485.54883 71.992188 L 496.34961 88.75 C 496.6621 89.25781 497.08529 89.69401 497.61914 90.058594 C 498.15301 90.410155 498.67385 90.585937 499.18164 90.585938 L 505.66602 90.585938 C 506.17381 90.585937 506.60351 90.410155 506.95508 90.058594 C 507.31965 89.69401 507.50195 89.25781 507.50195 88.75 L 507.50195 64.433594 C 507.50195 63.899743 507.31965 63.45703 506.95508 63.105469 C 506.60351 62.753907 506.17381 62.578125 505.66602 62.578125 L 502.30664 62.578125 C 501.79885 62.578125 501.36265 62.753907 500.99805 63.105469 C 500.6465 63.45703 500.4707 63.886721 500.4707 64.394531 L 500.4707 82.578125 L 488.67383 64.433594 C 488.34831 63.925784 487.93165 63.489583 487.42383 63.125 C 486.91601 62.760419 486.43423 62.578125 485.97852 62.578125 L 480.23633 62.578125 z M 539.10352 62.578125 C 538.76492 62.578125 538.47847 62.695306 538.24414 62.929688 C 538.02266 63.151042 537.91211 63.437501 537.91211 63.789062 L 537.91211 82.1875 C 537.91211 88.046856 540.71161 90.976563 546.31055 90.976562 C 548.44595 90.976562 550.17773 90.846352 551.50586 90.585938 C 551.85756 90.533853 552.14401 90.397136 552.36523 90.175781 C 552.59957 89.941408 552.7168 89.680989 552.7168 89.394531 L 552.7168 87.304688 C 552.7168 86.953128 552.59957 86.666667 552.36523 86.445312 C 552.14388 86.223958 551.85743 86.113281 551.50586 86.113281 L 550.7832 86.113281 L 548.10742 86.347656 C 547.06576 86.347656 546.23243 85.989582 545.60742 85.273438 C 544.98241 84.544273 544.66992 83.515621 544.66992 82.1875 L 544.66992 75.019531 L 550.11914 75.019531 C 550.45756 75.019531 550.7375 74.908854 550.95898 74.6875 C 551.19332 74.466148 551.31055 74.179687 551.31055 73.828125 L 551.31055 71.503906 C 551.31055 71.152347 551.19332 70.865886 550.95898 70.644531 C 550.73763 70.423177 550.45769 70.3125 550.11914 70.3125 L 544.66992 70.3125 L 544.66992 63.789062 C 544.66992 63.437501 544.55269 63.151042 544.31836 62.929688 C 544.09701 62.695306 543.81706 62.578125 543.47852 62.578125 L 539.10352 62.578125 z M 637.87305 62.578125 C 637.53445 62.578125 637.248 62.695306 637.01367 62.929688 C 636.79219 63.151042 636.68164 63.437501 636.68164 63.789062 L 636.68164 89.394531 C 636.68164 89.746093 636.79219 90.032552 637.01367 90.253906 C 637.23503 90.475261 637.52148 90.585938 637.87305 90.585938 L 642.24805 90.585938 C 642.58647 90.585937 642.86641 90.475261 643.08789 90.253906 C 643.32222 90.032552 643.43945 89.746093 643.43945 89.394531 L 643.43945 82.109375 C 645.4707 82.109375 647.02017 82.975267 648.08789 84.707031 L 650.56836 88.75 C 651.31053 89.973955 652.30665 90.585937 653.55664 90.585938 L 657.24805 90.585938 C 657.92511 90.585938 658.26367 90.299478 658.26367 89.726562 C 658.25082 89.453126 658.13359 89.127603 657.91211 88.75 L 654.5918 83.378906 C 653.41992 81.516935 652.0332 80.34505 650.43164 79.863281 C 651.29103 79.68099 652.09181 79.270832 652.83398 78.632812 C 653.57618 77.994793 654.16211 77.233069 654.5918 76.347656 L 657.11133 71.035156 C 657.31971 70.59245 657.42383 70.227864 657.42383 69.941406 C 657.42383 69.433596 657.0983 69.179688 656.44727 69.179688 L 652.75586 69.179688 C 652.16993 69.179687 651.62305 69.34896 651.11523 69.6875 C 650.60742 70.02604 650.2233 70.475262 649.96289 71.035156 L 648.08789 75.019531 C 647.25456 76.777339 645.70508 77.65625 643.43945 77.65625 L 643.43945 63.789062 C 643.43945 63.437501 643.3289 63.151042 643.10742 62.929688 C 642.88607 62.695306 642.59959 62.578125 642.24805 62.578125 L 637.87305 62.578125 z M 438.81055 68.105469 L 444.00586 68.105469 C 447.50845 68.105469 449.89128 68.750004 451.1543 70.039062 C 452.41734 71.315102 453.04883 73.502614 453.04883 76.601562 C 453.04883 79.687489 452.41734 81.868492 451.1543 83.144531 C 449.89128 84.420568 447.50845 85.058594 444.00586 85.058594 L 438.81055 85.058594 L 438.81055 68.105469 z M 316.44922 68.789062 C 312.8685 68.789062 310.069 69.75261 308.05078 71.679688 C 306.03256 73.593744 305.02344 76.341158 305.02344 79.921875 C 305.02344 83.489573 306.02605 86.223963 308.03125 88.125 C 310.03645 90.026034 312.83595 90.976562 316.42969 90.976562 C 323.55206 90.989584 327.11133 89.127593 327.11133 85.390625 C 327.11133 85.039063 326.99415 84.752604 326.75977 84.53125 C 326.53841 84.296869 326.25195 84.179687 325.90039 84.179688 L 322.99023 84.179688 C 322.05274 84.192709 321.26497 84.589848 320.62695 85.371094 C 319.98893 86.152342 318.80403 86.542969 317.07227 86.542969 C 315.3405 86.542969 314.07942 86.178383 313.28516 85.449219 C 312.50392 84.720055 312.04819 83.554682 311.91797 81.953125 L 326.62305 81.953125 C 326.97461 81.953125 327.26107 81.842448 327.48242 81.621094 C 327.7168 81.38672 327.83398 81.093749 327.83398 80.742188 L 327.83398 79.628906 C 327.83398 76.139334 326.83138 73.463537 324.82617 71.601562 C 322.82097 69.726569 320.02994 68.789062 316.44922 68.789062 z M 346.85742 68.789062 C 344.86524 68.789062 343.25065 69.023438 342.01367 69.492188 C 340.78972 69.947915 339.51367 70.657556 338.18555 71.621094 L 338.18555 70.390625 C 338.18555 70.039063 338.07487 69.752604 337.85352 69.53125 C 337.63216 69.296869 337.3457 69.179688 336.99414 69.179688 L 332.61914 69.179688 C 332.28061 69.179687 331.99415 69.296869 331.75977 69.53125 C 331.53841 69.752604 331.42773 70.039063 331.42773 70.390625 L 331.42773 89.394531 C 331.42773 89.746093 331.53841 90.032552 331.75977 90.253906 C 331.98112 90.475261 332.26758 90.585937 332.61914 90.585938 L 336.99414 90.585938 C 337.33268 90.585938 337.61263 90.475261 337.83398 90.253906 C 338.06837 90.032552 338.18555 89.746093 338.18555 89.394531 L 338.18555 76.914062 C 339.7871 74.986985 341.4668 74.023438 343.22461 74.023438 L 346.23242 74.140625 L 346.85742 74.140625 C 347.20898 74.140625 347.49544 74.029948 347.7168 73.808594 C 347.95118 73.587242 348.06836 73.30078 348.06836 72.949219 L 348.06836 69.980469 C 348.06836 69.641929 347.95118 69.361979 347.7168 69.140625 C 347.49544 68.906244 347.20898 68.789062 346.85742 68.789062 z M 361.66211 68.789062 C 357.79493 68.789062 354.82616 69.674485 352.75586 71.445312 C 350.68555 73.216142 349.65039 75.683605 349.65039 78.847656 C 349.65039 82.011708 350.55534 84.485682 352.36523 86.269531 C 354.18815 88.05338 356.57748 88.945312 359.5332 88.945312 C 361.34309 88.945313 363.28972 88.678384 365.37305 88.144531 L 365.37305 89.0625 C 365.37305 90.585932 365.0345 91.647137 364.35742 92.246094 C 363.68034 92.845051 362.42382 93.144531 360.58789 93.144531 C 358.76498 93.144531 357.49544 92.701821 356.7793 91.816406 C 356.2194 91.126305 355.4707 90.78125 354.5332 90.78125 L 351.62305 90.78125 C 351.27149 90.78125 350.97852 90.891927 350.74414 91.113281 C 350.52279 91.347655 350.41211 91.640626 350.41211 91.992188 C 350.41211 93.984369 351.3431 95.41016 353.20508 96.269531 C 355.08007 97.141924 357.74285 97.578125 361.19336 97.578125 C 364.65689 97.578125 367.34571 96.881506 369.25977 95.488281 C 371.17382 94.108078 372.13086 91.966137 372.13086 89.0625 L 372.13086 70.976562 C 371.10222 70.364586 369.57226 69.850259 367.54102 69.433594 C 365.50977 69.003907 363.55012 68.789062 361.66211 68.789062 z M 387.15039 68.789062 C 383.56967 68.789062 380.77017 69.75261 378.75195 71.679688 C 376.73374 73.593744 375.72461 76.341158 375.72461 79.921875 C 375.72461 83.489573 376.72723 86.223963 378.73242 88.125 C 380.73764 90.026034 383.53713 90.976562 387.13086 90.976562 C 394.25323 90.989584 397.81445 89.127593 397.81445 85.390625 C 397.81445 85.039063 397.69722 84.752604 397.46289 84.53125 C 397.24156 84.296869 396.95509 84.179687 396.60352 84.179688 L 393.69336 84.179688 C 392.75586 84.192709 391.96809 84.589848 391.33008 85.371094 C 390.69207 86.152342 389.50717 86.542969 387.77539 86.542969 C 386.04364 86.542969 384.78061 86.178383 383.98633 85.449219 C 383.20515 84.720055 382.74941 83.554682 382.61914 81.953125 L 397.32617 81.953125 C 397.67787 81.953125 397.96432 81.842448 398.18555 81.621094 C 398.41988 81.38672 398.53711 81.093749 398.53711 80.742188 L 398.53711 79.628906 C 398.53711 76.139334 397.53451 73.463537 395.5293 71.601562 C 393.52411 69.726569 390.73112 68.789062 387.15039 68.789062 z M 522.93164 68.789062 C 519.35092 68.789062 516.55142 69.75261 514.5332 71.679688 C 512.51496 73.593744 511.50586 76.341158 511.50586 79.921875 C 511.50586 83.489573 512.50846 86.223963 514.51367 88.125 C 516.51886 90.026034 519.31836 90.976562 522.91211 90.976562 C 530.03448 90.989584 533.5957 89.127593 533.5957 85.390625 C 533.5957 85.039063 533.47847 84.752604 533.24414 84.53125 C 533.02279 84.296869 532.73631 84.179687 532.38477 84.179688 L 529.47461 84.179688 C 528.53711 84.192709 527.74934 84.589848 527.11133 85.371094 C 526.47329 86.152342 525.28839 86.542969 523.55664 86.542969 C 521.82489 86.542969 520.56186 86.178383 519.76758 85.449219 C 518.9864 84.720055 518.53066 83.554682 518.40039 81.953125 L 533.10742 81.953125 C 533.45887 81.953125 533.74532 81.842448 533.9668 81.621094 C 534.20113 81.38672 534.31836 81.093749 534.31836 80.742188 L 534.31836 79.628906 C 534.31836 76.139334 533.31574 73.463537 531.31055 71.601562 C 529.30533 69.726569 526.51234 68.789062 522.93164 68.789062 z M 601.83789 68.789062 C 598.03584 68.789063 595.11913 69.726569 593.08789 71.601562 C 591.05665 73.463537 590.04102 76.22397 590.04102 79.882812 C 590.04102 83.528635 591.05665 86.289069 593.08789 88.164062 C 595.11913 90.039056 598.03584 90.976563 601.83789 90.976562 C 605.653 90.976563 608.57618 90.039056 610.60742 88.164062 C 612.63867 86.289069 613.6543 83.528635 613.6543 79.882812 C 613.6543 76.22397 612.63867 73.463537 610.60742 71.601562 C 608.57618 69.726569 605.653 68.789062 601.83789 68.789062 z M 632.67773 68.789062 C 630.68555 68.789062 629.07097 69.023438 627.83398 69.492188 C 626.61005 69.947915 625.33399 70.657556 624.00586 71.621094 L 624.00586 70.390625 C 624.00586 70.039063 623.89531 69.752604 623.67383 69.53125 C 623.45247 69.296869 623.16602 69.179688 622.81445 69.179688 L 618.43945 69.179688 C 618.10086 69.179687 617.81441 69.296869 617.58008 69.53125 C 617.3586 69.752604 617.24805 70.039063 617.24805 70.390625 L 617.24805 89.394531 C 617.24805 89.746093 617.3586 90.032552 617.58008 90.253906 C 617.80143 90.475261 618.08788 90.585937 618.43945 90.585938 L 622.81445 90.585938 C 623.15287 90.585938 623.43282 90.475261 623.6543 90.253906 C 623.88863 90.032552 624.00586 89.746093 624.00586 89.394531 L 624.00586 76.914062 C 625.60742 74.986985 627.28711 74.023438 629.04492 74.023438 L 632.05273 74.140625 L 632.67773 74.140625 C 633.02915 74.140625 633.31563 74.029948 633.53711 73.808594 C 633.77144 73.587242 633.88867 73.30078 633.88867 72.949219 L 633.88867 69.980469 C 633.88867 69.641929 633.77144 69.361979 633.53711 69.140625 C 633.31576 68.906244 633.02928 68.789062 632.67773 68.789062 z M 554.49414 69.179688 C 553.8431 69.192707 553.51758 69.485678 553.51758 70.058594 C 553.53068 70.279948 553.5893 70.559898 553.69336 70.898438 L 559.61133 88.867188 C 559.79363 89.401041 560.11915 89.82422 560.58789 90.136719 C 561.05665 90.436198 561.55795 90.585937 562.0918 90.585938 L 564.8457 90.585938 C 565.37957 90.585938 565.88738 90.429686 566.36914 90.117188 C 566.85093 89.791667 567.16995 89.375 567.32617 88.867188 L 571.0957 77.226562 L 574.8457 88.867188 C 575.00195 89.375 575.32097 89.791667 575.80273 90.117188 C 576.2845 90.429686 576.7923 90.585937 577.32617 90.585938 L 580.08008 90.585938 C 580.61395 90.585937 581.11525 90.436198 581.58398 90.136719 C 582.0526 89.82422 582.37812 89.401041 582.56055 88.867188 L 588.47852 70.898438 C 588.59568 70.572924 588.6543 70.292975 588.6543 70.058594 C 588.64127 69.472659 588.31574 69.179688 587.67773 69.179688 L 584.04492 69.179688 C 583.43294 69.179688 582.88606 69.335939 582.4043 69.648438 C 581.92266 69.947915 581.59063 70.364584 581.4082 70.898438 L 578.20508 81.425781 L 575.04102 70.898438 C 574.7025 69.752608 573.96028 69.179688 572.81445 69.179688 L 569.35742 69.179688 C 568.2246 69.179688 567.48241 69.752608 567.13086 70.898438 L 563.9668 81.425781 L 560.76367 70.898438 C 560.58137 70.364584 560.24934 69.947915 559.76758 69.648438 C 559.28581 69.335939 558.73893 69.179688 558.12695 69.179688 L 554.49414 69.179688 z M 316.42969 73.222656 C 319.32029 73.222656 320.82877 74.759124 320.95898 77.832031 L 311.87891 77.832031 C 312.03515 74.759124 313.55209 73.222656 316.42969 73.222656 z M 387.13086 73.222656 C 390.02142 73.222656 391.53184 74.759124 391.66211 77.832031 L 382.58008 77.832031 C 382.73632 74.759124 384.25328 73.222656 387.13086 73.222656 z M 522.91211 73.222656 C 525.80267 73.222656 527.31309 74.759124 527.44336 77.832031 L 518.36133 77.832031 C 518.51757 74.759124 520.0345 73.222656 522.91211 73.222656 z M 601.83789 73.222656 C 603.5827 73.222656 604.85873 73.750003 605.66602 74.804688 C 606.48632 75.859372 606.89648 77.545579 606.89648 79.863281 C 606.89648 82.180981 606.48632 83.873702 605.66602 84.941406 C 604.85873 86.009113 603.5827 86.542969 601.83789 86.542969 C 600.10614 86.542969 598.83658 86.009113 598.0293 84.941406 C 597.22199 83.873702 596.81836 82.180981 596.81836 79.863281 C 596.81836 77.545579 597.22199 75.859372 598.0293 74.804688 C 598.83658 73.750003 600.10614 73.222656 601.83789 73.222656 z M 361.25195 73.515625 C 362.87955 73.502603 364.25326 73.645833 365.37305 73.945312 L 365.37305 83.632812 C 363.79753 84.023437 362.38476 84.21875 361.13477 84.21875 C 358.12696 84.21875 356.62305 82.434883 356.62305 78.867188 C 356.62305 75.286388 358.16603 73.502523 361.25195 73.515625 z "
     transform="scale(0.26458333)" />
  <path
     id="path966"
     style="font-size:10.5833px;line-height:1.25;font-family:'Days One';-inkscape-font-specification:'Days One';letter-spacing:0px;word-spacing:0px;fill:url(#linearGradient1009);fill-opacity:1.0;stroke-width:0.999999"
     d="M 412.59961 62.421875 C 410.76367 62.421875 408.99934 62.721356 407.30664 63.320312 C 405.61394 63.919267 404.20116 64.817711 403.06836 66.015625 C 401.93553 67.200517 401.36914 68.53516 401.36914 70.019531 C 401.36914 70.553382 401.54491 71.048178 401.89648 71.503906 C 402.24806 71.959634 402.73635 72.1875 403.36133 72.1875 L 405.68555 72.1875 C 406.85743 72.1875 407.73634 71.575517 408.32227 70.351562 C 409.12955 68.750005 410.7832 67.949219 413.2832 67.949219 L 414.72852 67.949219 C 416.4603 67.949219 417.71682 68.177085 418.49805 68.632812 C 419.29233 69.075519 419.68945 69.843753 419.68945 70.9375 C 419.68945 72.031247 419.29233 72.805991 418.49805 73.261719 C 417.71682 73.717447 416.4603 73.945312 414.72852 73.945312 L 411.85742 73.945312 C 411.37566 73.945313 410.95899 74.134116 410.60742 74.511719 C 410.25588 74.8763 410.08008 75.299479 410.08008 75.78125 L 410.08008 77.382812 C 410.08008 77.890622 410.26238 78.326823 410.62695 78.691406 C 410.99153 79.042968 411.42773 79.21875 411.93555 79.21875 L 415.45117 79.21875 C 417.05273 79.21875 418.2246 79.446616 418.9668 79.902344 C 419.70897 80.358072 420.08008 81.132818 420.08008 82.226562 C 420.08008 83.32031 419.70897 84.095053 418.9668 84.550781 C 418.2246 85.006509 417.05273 85.234375 415.45117 85.234375 L 412.6582 85.234375 C 410.17125 85.234375 408.58269 84.492184 407.89258 83.007812 C 407.20249 81.523443 406.25195 80.78125 405.04102 80.78125 L 402.73633 80.78125 C 402.30665 80.78125 401.86394 80.950523 401.4082 81.289062 C 400.95247 81.614583 400.72461 82.16797 400.72461 82.949219 C 400.72461 85.266918 401.87046 87.148441 404.16211 88.59375 C 406.45379 90.026037 409.05797 90.742187 411.97461 90.742188 L 416.13477 90.742188 C 419.83268 90.742188 422.63868 90.078121 424.55273 88.75 C 426.47981 87.408857 427.44336 85.234366 427.44336 82.226562 C 427.44336 79.752612 426.42122 77.87109 424.37695 76.582031 C 426.16079 75.227869 427.05273 73.359368 427.05273 70.976562 C 427.05273 65.273457 423.13344 62.421875 415.29492 62.421875 L 412.59961 62.421875 z M 275.08203 62.578125 C 274.63934 62.578125 274.29428 62.721355 274.04688 63.007812 C 273.81249 63.281259 273.69531 63.515637 273.69531 63.710938 C 273.69531 63.893232 273.73436 64.062504 273.8125 64.21875 L 285.04297 88.59375 C 285.65495 89.921871 286.58594 90.585938 287.83594 90.585938 L 290.64844 90.585938 C 291.89843 90.585938 292.82943 89.921871 293.44141 88.59375 L 304.69141 64.21875 C 304.75651 64.062509 304.78906 63.893237 304.78906 63.710938 C 304.78906 63.515627 304.67188 63.281249 304.4375 63.007812 C 304.20312 62.721355 303.85807 62.578125 303.40234 62.578125 L 299.125 62.578125 C 298.10938 62.591144 297.33463 63.209639 296.80078 64.433594 L 289.24219 81.269531 L 281.68359 64.433594 C 281.14974 63.19662 280.375 62.578125 279.35938 62.578125 L 275.08203 62.578125 z M 433.30273 62.578125 C 432.79494 62.578125 432.35874 62.760419 431.99414 63.125 C 431.62957 63.489583 431.44727 63.938803 431.44727 64.472656 L 431.44727 88.789062 C 431.44727 89.296872 431.62957 89.726563 431.99414 90.078125 C 432.35874 90.416667 432.79494 90.585937 433.30273 90.585938 L 444.2207 90.585938 C 449.87173 90.585938 453.97983 89.45963 456.54492 87.207031 C 459.12304 84.954435 460.41211 81.419256 460.41211 76.601562 C 460.41211 71.770848 459.12304 68.229158 456.54492 65.976562 C 453.97983 63.710945 449.87173 62.578125 444.2207 62.578125 L 433.30273 62.578125 z M 480.23633 62.578125 C 479.72851 62.578125 479.29881 62.760419 478.94727 63.125 C 478.59569 63.489583 478.41992 63.925784 478.41992 64.433594 L 478.41992 88.75 C 478.41992 89.25781 478.6022 89.69401 478.9668 90.058594 C 479.33137 90.410155 479.76757 90.585937 480.27539 90.585938 L 483.71289 90.585938 C 484.22071 90.585937 484.65038 90.410155 485.00195 90.058594 C 485.36653 89.69401 485.54883 89.25781 485.54883 88.75 L 485.54883 71.992188 L 496.34961 88.75 C 496.6621 89.25781 497.08529 89.69401 497.61914 90.058594 C 498.15301 90.410155 498.67385 90.585937 499.18164 90.585938 L 505.66602 90.585938 C 506.17381 90.585937 506.60351 90.410155 506.95508 90.058594 C 507.31965 89.69401 507.50195 89.25781 507.50195 88.75 L 507.50195 64.433594 C 507.50195 63.899743 507.31965 63.45703 506.95508 63.105469 C 506.60351 62.753907 506.17381 62.578125 505.66602 62.578125 L 502.30664 62.578125 C 501.79885 62.578125 501.36265 62.753907 500.99805 63.105469 C 500.6465 63.45703 500.4707 63.886721 500.4707 64.394531 L 500.4707 82.578125 L 488.67383 64.433594 C 488.34831 63.925784 487.93165 63.489583 487.42383 63.125 C 486.91601 62.760419 486.43423 62.578125 485.97852 62.578125 L 480.23633 62.578125 z M 539.10352 62.578125 C 538.76492 62.578125 538.47847 62.695306 538.24414 62.929688 C 538.02266 63.151042 537.91211 63.437501 537.91211 63.789062 L 537.91211 82.1875 C 537.91211 88.046856 540.71161 90.976563 546.31055 90.976562 C 548.44595 90.976562 550.17773 90.846352 551.50586 90.585938 C 551.85756 90.533853 552.14401 90.397136 552.36523 90.175781 C 552.59957 89.941408 552.7168 89.680989 552.7168 89.394531 L 552.7168 87.304688 C 552.7168 86.953128 552.59957 86.666667 552.36523 86.445312 C 552.14388 86.223958 551.85743 86.113281 551.50586 86.113281 L 550.7832 86.113281 L 548.10742 86.347656 C 547.06576 86.347656 546.23243 85.989582 545.60742 85.273438 C 544.98241 84.544273 544.66992 83.515621 544.66992 82.1875 L 544.66992 75.019531 L 550.11914 75.019531 C 550.45756 75.019531 550.7375 74.908854 550.95898 74.6875 C 551.19332 74.466148 551.31055 74.179687 551.31055 73.828125 L 551.31055 71.503906 C 551.31055 71.152347 551.19332 70.865886 550.95898 70.644531 C 550.73763 70.423177 550.45769 70.3125 550.11914 70.3125 L 544.66992 70.3125 L 544.66992 63.789062 C 544.66992 63.437501 544.55269 63.151042 544.31836 62.929688 C 544.09701 62.695306 543.81706 62.578125 543.47852 62.578125 L 539.10352 62.578125 z M 637.87305 62.578125 C 637.53445 62.578125 637.248 62.695306 637.01367 62.929688 C 636.79219 63.151042 636.68164 63.437501 636.68164 63.789062 L 636.68164 89.394531 C 636.68164 89.746093 636.79219 90.032552 637.01367 90.253906 C 637.23503 90.475261 637.52148 90.585938 637.87305 90.585938 L 642.24805 90.585938 C 642.58647 90.585937 642.86641 90.475261 643.08789 90.253906 C 643.32222 90.032552 643.43945 89.746093 643.43945 89.394531 L 643.43945 82.109375 C 645.4707 82.109375 647.02017 82.975267 648.08789 84.707031 L 650.56836 88.75 C 651.31053 89.973955 652.30665 90.585937 653.55664 90.585938 L 657.24805 90.585938 C 657.92511 90.585938 658.26367 90.299478 658.26367 89.726562 C 658.25082 89.453126 658.13359 89.127603 657.91211 88.75 L 654.5918 83.378906 C 653.41992 81.516935 652.0332 80.34505 650.43164 79.863281 C 651.29103 79.68099 652.09181 79.270832 652.83398 78.632812 C 653.57618 77.994793 654.16211 77.233069 654.5918 76.347656 L 657.11133 71.035156 C 657.31971 70.59245 657.42383 70.227864 657.42383 69.941406 C 657.42383 69.433596 657.0983 69.179688 656.44727 69.179688 L 652.75586 69.179688 C 652.16993 69.179687 651.62305 69.34896 651.11523 69.6875 C 650.60742 70.02604 650.2233 70.475262 649.96289 71.035156 L 648.08789 75.019531 C 647.25456 76.777339 645.70508 77.65625 643.43945 77.65625 L 643.43945 63.789062 C 643.43945 63.437501 643.3289 63.151042 643.10742 62.929688 C 642.88607 62.695306 642.59959 62.578125 642.24805 62.578125 L 637.87305 62.578125 z M 438.81055 68.105469 L 444.00586 68.105469 C 447.50845 68.105469 449.89128 68.750004 451.1543 70.039062 C 452.41734 71.315102 453.04883 73.502614 453.04883 76.601562 C 453.04883 79.687489 452.41734 81.868492 451.1543 83.144531 C 449.89128 84.420568 447.50845 85.058594 444.00586 85.058594 L 438.81055 85.058594 L 438.81055 68.105469 z M 316.44922 68.789062 C 312.8685 68.789062 310.069 69.75261 308.05078 71.679688 C 306.03256 73.593744 305.02344 76.341158 305.02344 79.921875 C 305.02344 83.489573 306.02605 86.223963 308.03125 88.125 C 310.03645 90.026034 312.83595 90.976562 316.42969 90.976562 C 323.55206 90.989584 327.11133 89.127593 327.11133 85.390625 C 327.11133 85.039063 326.99415 84.752604 326.75977 84.53125 C 326.53841 84.296869 326.25195 84.179687 325.90039 84.179688 L 322.99023 84.179688 C 322.05274 84.192709 321.26497 84.589848 320.62695 85.371094 C 319.98893 86.152342 318.80403 86.542969 317.07227 86.542969 C 315.3405 86.542969 314.07942 86.178383 313.28516 85.449219 C 312.50392 84.720055 312.04819 83.554682 311.91797 81.953125 L 326.62305 81.953125 C 326.97461 81.953125 327.26107 81.842448 327.48242 81.621094 C 327.7168 81.38672 327.83398 81.093749 327.83398 80.742188 L 327.83398 79.628906 C 327.83398 76.139334 326.83138 73.463537 324.82617 71.601562 C 322.82097 69.726569 320.02994 68.789062 316.44922 68.789062 z M 346.85742 68.789062 C 344.86524 68.789062 343.25065 69.023438 342.01367 69.492188 C 340.78972 69.947915 339.51367 70.657556 338.18555 71.621094 L 338.18555 70.390625 C 338.18555 70.039063 338.07487 69.752604 337.85352 69.53125 C 337.63216 69.296869 337.3457 69.179688 336.99414 69.179688 L 332.61914 69.179688 C 332.28061 69.179687 331.99415 69.296869 331.75977 69.53125 C 331.53841 69.752604 331.42773 70.039063 331.42773 70.390625 L 331.42773 89.394531 C 331.42773 89.746093 331.53841 90.032552 331.75977 90.253906 C 331.98112 90.475261 332.26758 90.585937 332.61914 90.585938 L 336.99414 90.585938 C 337.33268 90.585938 337.61263 90.475261 337.83398 90.253906 C 338.06837 90.032552 338.18555 89.746093 338.18555 89.394531 L 338.18555 76.914062 C 339.7871 74.986985 341.4668 74.023438 343.22461 74.023438 L 346.23242 74.140625 L 346.85742 74.140625 C 347.20898 74.140625 347.49544 74.029948 347.7168 73.808594 C 347.95118 73.587242 348.06836 73.30078 348.06836 72.949219 L 348.06836 69.980469 C 348.06836 69.641929 347.95118 69.361979 347.7168 69.140625 C 347.49544 68.906244 347.20898 68.789062 346.85742 68.789062 z M 361.66211 68.789062 C 357.79493 68.789062 354.82616 69.674485 352.75586 71.445312 C 350.68555 73.216142 349.65039 75.683605 349.65039 78.847656 C 349.65039 82.011708 350.55534 84.485682 352.36523 86.269531 C 354.18815 88.05338 356.57748 88.945312 359.5332 88.945312 C 361.34309 88.945313 363.28972 88.678384 365.37305 88.144531 L 365.37305 89.0625 C 365.37305 90.585932 365.0345 91.647137 364.35742 92.246094 C 363.68034 92.845051 362.42382 93.144531 360.58789 93.144531 C 358.76498 93.144531 357.49544 92.701821 356.7793 91.816406 C 356.2194 91.126305 355.4707 90.78125 354.5332 90.78125 L 351.62305 90.78125 C 351.27149 90.78125 350.97852 90.891927 350.74414 91.113281 C 350.52279 91.347655 350.41211 91.640626 350.41211 91.992188 C 350.41211 93.984369 351.3431 95.41016 353.20508 96.269531 C 355.08007 97.141924 357.74285 97.578125 361.19336 97.578125 C 364.65689 97.578125 367.34571 96.881506 369.25977 95.488281 C 371.17382 94.108078 372.13086 91.966137 372.13086 89.0625 L 372.13086 70.976562 C 371.10222 70.364586 369.57226 69.850259 367.54102 69.433594 C 365.50977 69.003907 363.55012 68.789062 361.66211 68.789062 z M 387.15039 68.789062 C 383.56967 68.789062 380.77017 69.75261 378.75195 71.679688 C 376.73374 73.593744 375.72461 76.341158 375.72461 79.921875 C 375.72461 83.489573 376.72723 86.223963 378.73242 88.125 C 380.73764 90.026034 383.53713 90.976562 387.13086 90.976562 C 394.25323 90.989584 397.81445 89.127593 397.81445 85.390625 C 397.81445 85.039063 397.69722 84.752604 397.46289 84.53125 C 397.24156 84.296869 396.95509 84.179687 396.60352 84.179688 L 393.69336 84.179688 C 392.75586 84.192709 391.96809 84.589848 391.33008 85.371094 C 390.69207 86.152342 389.50717 86.542969 387.77539 86.542969 C 386.04364 86.542969 384.78061 86.178383 383.98633 85.449219 C 383.20515 84.720055 382.74941 83.554682 382.61914 81.953125 L 397.32617 81.953125 C 397.67787 81.953125 397.96432 81.842448 398.18555 81.621094 C 398.41988 81.38672 398.53711 81.093749 398.53711 80.742188 L 398.53711 79.628906 C 398.53711 76.139334 397.53451 73.463537 395.5293 71.601562 C 393.52411 69.726569 390.73112 68.789062 387.15039 68.789062 z M 522.93164 68.789062 C 519.35092 68.789062 516.55142 69.75261 514.5332 71.679688 C 512.51496 73.593744 511.50586 76.341158 511.50586 79.921875 C 511.50586 83.489573 512.50846 86.223963 514.51367 88.125 C 516.51886 90.026034 519.31836 90.976562 522.91211 90.976562 C 530.03448 90.989584 533.5957 89.127593 533.5957 85.390625 C 533.5957 85.039063 533.47847 84.752604 533.24414 84.53125 C 533.02279 84.296869 532.73631 84.179687 532.38477 84.179688 L 529.47461 84.179688 C 528.53711 84.192709 527.74934 84.589848 527.11133 85.371094 C 526.47329 86.152342 525.28839 86.542969 523.55664 86.542969 C 521.82489 86.542969 520.56186 86.178383 519.76758 85.449219 C 518.9864 84.720055 518.53066 83.554682 518.40039 81.953125 L 533.10742 81.953125 C 533.45887 81.953125 533.74532 81.842448 533.9668 81.621094 C 534.20113 81.38672 534.31836 81.093749 534.31836 80.742188 L 534.31836 79.628906 C 534.31836 76.139334 533.31574 73.463537 531.31055 71.601562 C 529.30533 69.726569 526.51234 68.789062 522.93164 68.789062 z M 601.83789 68.789062 C 598.03584 68.789063 595.11913 69.726569 593.08789 71.601562 C 591.05665 73.463537 590.04102 76.22397 590.04102 79.882812 C 590.04102 83.528635 591.05665 86.289069 593.08789 88.164062 C 595.11913 90.039056 598.03584 90.976563 601.83789 90.976562 C 605.653 90.976563 608.57618 90.039056 610.60742 88.164062 C 612.63867 86.289069 613.6543 83.528635 613.6543 79.882812 C 613.6543 76.22397 612.63867 73.463537 610.60742 71.601562 C 608.57618 69.726569 605.653 68.789062 601.83789 68.789062 z M 632.67773 68.789062 C 630.68555 68.789062 629.07097 69.023438 627.83398 69.492188 C 626.61005 69.947915 625.33399 70.657556 624.00586 71.621094 L 624.00586 70.390625 C 624.00586 70.039063 623.89531 69.752604 623.67383 69.53125 C 623.45247 69.296869 623.16602 69.179688 622.81445 69.179688 L 618.43945 69.179688 C 618.10086 69.179687 617.81441 69.296869 617.58008 69.53125 C 617.3586 69.752604 617.24805 70.039063 617.24805 70.390625 L 617.24805 89.394531 C 617.24805 89.746093 617.3586 90.032552 617.58008 90.253906 C 617.80143 90.475261 618.08788 90.585937 618.43945 90.585938 L 622.81445 90.585938 C 623.15287 90.585938 623.43282 90.475261 623.6543 90.253906 C 623.88863 90.032552 624.00586 89.746093 624.00586 89.394531 L 624.00586 76.914062 C 625.60742 74.986985 627.28711 74.023438 629.04492 74.023438 L 632.05273 74.140625 L 632.67773 74.140625 C 633.02915 74.140625 633.31563 74.029948 633.53711 73.808594 C 633.77144 73.587242 633.88867 73.30078 633.88867 72.949219 L 633.88867 69.980469 C 633.88867 69.641929 633.77144 69.361979 633.53711 69.140625 C 633.31576 68.906244 633.02928 68.789062 632.67773 68.789062 z M 554.49414 69.179688 C 553.8431 69.192707 553.51758 69.485678 553.51758 70.058594 C 553.53068 70.279948 553.5893 70.559898 553.69336 70.898438 L 559.61133 88.867188 C 559.79363 89.401041 560.11915 89.82422 560.58789 90.136719 C 561.05665 90.436198 561.55795 90.585937 562.0918 90.585938 L 564.8457 90.585938 C 565.37957 90.585938 565.88738 90.429686 566.36914 90.117188 C 566.85093 89.791667 567.16995 89.375 567.32617 88.867188 L 571.0957 77.226562 L 574.8457 88.867188 C 575.00195 89.375 575.32097 89.791667 575.80273 90.117188 C 576.2845 90.429686 576.7923 90.585937 577.32617 90.585938 L 580.08008 90.585938 C 580.61395 90.585937 581.11525 90.436198 581.58398 90.136719 C 582.0526 89.82422 582.37812 89.401041 582.56055 88.867188 L 588.47852 70.898438 C 588.59568 70.572924 588.6543 70.292975 588.6543 70.058594 C 588.64127 69.472659 588.31574 69.179688 587.67773 69.179688 L 584.04492 69.179688 C 583.43294 69.179688 582.88606 69.335939 582.4043 69.648438 C 581.92266 69.947915 581.59063 70.364584 581.4082 70.898438 L 578.20508 81.425781 L 575.04102 70.898438 C 574.7025 69.752608 573.96028 69.179688 572.81445 69.179688 L 569.35742 69.179688 C 568.2246 69.179688 567.48241 69.752608 567.13086 70.898438 L 563.9668 81.425781 L 560.76367 70.898438 C 560.58137 70.364584 560.24934 69.947915 559.76758 69.648438 C 559.28581 69.335939 558.73893 69.179688 558.12695 69.179688 L 554.49414 69.179688 z M 316.42969 73.222656 C 319.32029 73.222656 320.82877 74.759124 320.95898 77.832031 L 311.87891 77.832031 C 312.03515 74.759124 313.55209 73.222656 316.42969 73.222656 z M 387.13086 73.222656 C 390.02142 73.222656 391.53184 74.759124 391.66211 77.832031 L 382.58008 77.832031 C 382.73632 74.759124 384.25328 73.222656 387.13086 73.222656 z M 522.91211 73.222656 C 525.80267 73.222656 527.31309 74.759124 527.44336 77.832031 L 518.36133 77.832031 C 518.51757 74.759124 520.0345 73.222656 522.91211 73.222656 z M 601.83789 73.222656 C 603.5827 73.222656 604.85873 73.750003 605.66602 74.804688 C 606.48632 75.859372 606.89648 77.545579 606.89648 79.863281 C 606.89648 82.180981 606.48632 83.873702 605.66602 84.941406 C 604.85873 86.009113 603.5827 86.542969 601.83789 86.542969 C 600.10614 86.542969 598.83658 86.009113 598.0293 84.941406 C 597.22199 83.873702 596.81836 82.180981 596.81836 79.863281 C 596.81836 77.545579 597.22199 75.859372 598.0293 74.804688 C 598.83658 73.750003 600.10614 73.222656 601.83789 73.222656 z M 361.25195 73.515625 C 362.87955 73.502603 364.25326 73.645833 365.37305 73.945312 L 365.37305 83.632812 C 363.79753 84.023437 362.38476 84.21875 361.13477 84.21875 C 358.12696 84.21875 356.62305 82.434883 356.62305 78.867188 C 356.62305 75.286388 358.16603 73.502523 361.25195 73.515625 z "
     transform="scale(0.26458333)" />
  <path
     inkscape:export-ydpi="96"
     inkscape:export-xdpi="96"
     inkscape:export-filename="D:\Repos\art\design\app_manager\maket\dark\21-demo-store.png"
     inkscape:connector-curvature="0"
     id="path20168"
     d="m 33.57902,7.735197 c -1.4442,-0.0064 -2.8927,0.954001 -6.25043,2.872812 -6.71547,3.837621 -6.25114,3.041584 -6.2854,10.776159 -0.0342,7.734574 -0.49148,6.934451 6.18973,10.831404 6.68121,3.896953 5.75966,3.892866 12.47511,0.05524 6.71548,-3.83762 6.25114,-3.041585 6.2854,-10.776159 0.0342,-7.734574 0.49148,-6.934449 -6.18973,-10.831404 -3.34061,-1.948477 -4.78049,-2.92166 -6.22468,-2.928056 z m -0.0114,2.461738 c 1.45604,0.0065 2.90904,0.701661 5.28878,2.089686 4.75946,2.776053 5.28172,3.689902 5.2573,9.199739 -0.0244,5.509838 -0.5547,6.419007 -5.33856,9.152792 -4.78385,2.733785 -5.8364,2.729104 -10.59587,-0.04694 -4.75945,-2.776052 -5.28169,-3.689902 -5.2573,-9.19974 0.0245,-5.509837 0.5547,-6.419006 5.33857,-9.152792 2.39193,-1.366892 3.85104,-2.049187 5.30708,-2.04274 z m -0.1334,1.396497 c -2.33001,0.02955 -4.91517,2.650267 -6.25825,5.24472 -1.36441,2.635637 -2.14509,5.131701 -1.82359,8.336959 0.14,1.395489 1.46882,3.176657 3.05965,4.069632 -0.33811,-2.76779 -0.14767,-5.47572 0.46701,-7.723532 0.61469,-2.247812 2.44942,-5.895055 4.61577,-5.89016 2.16637,0.0049 4.00105,3.649038 4.61573,5.896851 0.61466,2.247811 0.80512,4.955742 0.467,7.723532 1.59084,-0.892976 2.91967,-2.674196 3.05966,-4.069685 0.3215,-3.205258 -0.45907,-5.701215 -1.82349,-8.336853 -1.33842,-2.585447 -3.91038,-5.196724 -6.26873,-5.25093 -0.0369,-8.3e-4 -0.0738,-9.88e-4 -0.11071,-5.18e-4 z m 0.11391,7.698908 a 2.1388648,2.1388648 0 0 0 -1.02798,0.251655 2.1388648,2.1388648 0 0 0 -0.88029,2.893903 2.1388648,2.1388648 0 0 0 2.89389,0.880283 2.1388648,2.1388648 0 0 0 0.8803,-2.893901 2.1388648,2.1388648 0 0 0 -1.86592,-1.13194 z"
     style="opacity:0.65;fill:url(#linearGradient1592);fill-opacity:1;stroke:none;stroke-width:0.792418;stroke-miterlimit:4;stroke-dasharray:none;stroke-opacity:1;filter:url(#filter3777-8)" />
  <path
     inkscape:export-ydpi="96"
     inkscape:export-xdpi="96"
     inkscape:export-filename="D:\Repos\art\design\app_manager\maket\dark\21-demo-store.png"
     inkscape:connector-curvature="0"
     id="path20174"
     d="m 33.57902,7.735197 c -1.4442,-0.0064 -2.8927,0.954001 -6.25043,2.872812 -6.71547,3.837621 -6.25114,3.041584 -6.2854,10.776159 -0.0342,7.734574 -0.49148,6.934451 6.18973,10.831404 6.68121,3.896953 5.75966,3.892866 12.47511,0.05524 6.71548,-3.83762 6.25114,-3.041585 6.2854,-10.776159 0.0342,-7.734574 0.49148,-6.934449 -6.18973,-10.831404 -3.34061,-1.948477 -4.78049,-2.92166 -6.22468,-2.928056 z m -0.0114,2.461738 c 1.45604,0.0065 2.90904,0.701661 5.28878,2.089686 4.75946,2.776053 5.28172,3.689902 5.2573,9.199739 -0.0244,5.509838 -0.5547,6.419007 -5.33856,9.152792 -4.78385,2.733785 -5.8364,2.729104 -10.59587,-0.04694 -4.75945,-2.776052 -5.28169,-3.689902 -5.2573,-9.19974 0.0245,-5.509837 0.5547,-6.419006 5.33857,-9.152792 2.39193,-1.366892 3.85104,-2.049187 5.30708,-2.04274 z m -0.1334,1.396497 c -2.33001,0.02955 -4.91517,2.650267 -6.25825,5.24472 -1.36441,2.635637 -2.14509,5.131701 -1.82359,8.336959 0.14,1.395489 1.46882,3.176657 3.05965,4.069632 -0.33811,-2.76779 -0.14767,-5.47572 0.46701,-7.723532 0.61469,-2.247812 2.44942,-5.895055 4.61577,-5.89016 2.16637,0.0049 4.00105,3.649038 4.61573,5.896851 0.61466,2.247811 0.80512,4.955742 0.467,7.723532 1.59084,-0.892976 2.91967,-2.674196 3.05966,-4.069685 0.3215,-3.205258 -0.45907,-5.701215 -1.82349,-8.336853 -1.33842,-2.585447 -3.91038,-5.196724 -6.26873,-5.25093 -0.0369,-8.3e-4 -0.0738,-9.88e-4 -0.11071,-5.18e-4 z m 0.11391,7.698908 a 2.1388648,2.1388648 0 0 0 -1.02798,0.251655 2.1388648,2.1388648 0 0 0 -0.88029,2.893903 2.1388648,2.1388648 0 0 0 2.89389,0.880283 2.1388648,2.1388648 0 0 0 0.8803,-2.893901 2.1388648,2.1388648 0 0 0 -1.86592,-1.13194 z"
     style="fill:url(#linearGradient1594);fill-opacity:1;stroke:none;stroke-width:0.792418;stroke-miterlimit:4;stroke-dasharray:none;stroke-opacity:1" />
  <path
     style="fill:url(#linearGradient924);fill-opacity:1;stroke:none;stroke-width:0.792418;stroke-miterlimit:4;stroke-dasharray:none;stroke-opacity:1"
     d="m 33.57902,7.735197 c -1.4442,-0.0064 -2.8927,0.954001 -6.25043,2.872812 -6.71547,3.837621 -6.25114,3.041584 -6.2854,10.776159 -0.0342,7.734574 -0.49148,6.934451 6.18973,10.831404 6.68121,3.896953 5.75966,3.892866 12.47511,0.05524 6.71548,-3.83762 6.25114,-3.041585 6.2854,-10.776159 0.0342,-7.734574 0.49148,-6.934449 -6.18973,-10.831404 -3.34061,-1.948477 -4.78049,-2.92166 -6.22468,-2.928056 z m -0.0114,2.461738 c 1.45604,0.0065 2.90904,0.701661 5.28878,2.089686 4.75946,2.776053 5.28172,3.689902 5.2573,9.199739 -0.0244,5.509838 -0.5547,6.419007 -5.33856,9.152792 -4.78385,2.733785 -5.8364,2.729104 -10.59587,-0.04694 -4.75945,-2.776052 -5.28169,-3.689902 -5.2573,-9.19974 0.0245,-5.509837 0.5547,-6.419006 5.33857,-9.152792 2.39193,-1.366892 3.85104,-2.049187 5.30708,-2.04274 z m -0.1334,1.396497 c -2.33001,0.02955 -4.91517,2.650267 -6.25825,5.24472 -1.36441,2.635637 -2.14509,5.131701 -1.82359,8.336959 0.14,1.395489 1.46882,3.176657 3.05965,4.069632 -0.33811,-2.76779 -0.14767,-5.47572 0.46701,-7.723532 0.61469,-2.247812 2.44942,-5.895055 4.61577,-5.89016 2.16637,0.0049 4.00105,3.649038 4.61573,5.896851 0.61466,2.247811 0.80512,4.955742 0.467,7.723532 1.59084,-0.892976 2.91967,-2.674196 3.05966,-4.069685 0.3215,-3.205258 -0.45907,-5.701215 -1.82349,-8.336853 -1.33842,-2.585447 -3.91038,-5.196724 -6.26873,-5.25093 -0.0369,-8.3e-4 -0.0738,-9.88e-4 -0.11071,-5.18e-4 z m 0.11391,7.698908 a 2.1388648,2.1388648 0 0 0 -1.02798,0.251655 2.1388648,2.1388648 0 0 0 -0.88029,2.893903 2.1388648,2.1388648 0 0 0 2.89389,0.880283 2.1388648,2.1388648 0 0 0 0.8803,-2.893901 2.1388648,2.1388648 0 0 0 -1.86592,-1.13194 z"
     id="path20176"
     inkscape:connector-curvature="0"
     inkscape:export-filename="D:\Repos\art\design\app_manager\maket\dark\21-demo-store.png"
     inkscape:export-xdpi="96"
     inkscape:export-ydpi="96" />
  <path
     style="display:inline;opacity:0.65;fill:url(#linearGradient6082);fill-opacity:1;stroke:none;stroke-width:0.792418;stroke-miterlimit:4;stroke-dasharray:none;stroke-opacity:1;filter:url(#filter3777-2)"
     d="m 33.579022,7.462441 c -1.4442,-0.006 -2.8927,0.954 -6.25043,2.87281 -6.71547,3.83762 -6.25114,3.04158 -6.2854,10.77616 -0.0342,7.73457 -0.49148,6.93445 6.18973,10.83141 6.68121,3.89695 5.75966,3.89286 12.47511,0.0552 6.71548,-3.83763 6.25114,-3.04159 6.2854,-10.77617 0.0342,-7.73457 0.49148,-6.93444 -6.18973,-10.8314 -3.34061,-1.94848 -4.78049,-2.92166 -6.22468,-2.92806 z m -0.0114,2.46174 c 1.45604,0.006 2.90904,0.70166 5.28878,2.08968 4.75946,2.77606 5.28172,3.6899 5.2573,9.19974 -0.0244,5.50984 -0.5547,6.41901 -5.33856,9.15279 -4.78385,2.73379 -5.8364,2.72911 -10.59587,-0.0469 -4.75945,-2.77605 -5.28169,-3.6899 -5.2573,-9.19974 0.0245,-5.50983 0.5547,-6.419 5.33857,-9.15279 2.39193,-1.36689 3.85104,-2.04919 5.30708,-2.04274 z m -0.1334,1.39649 c -2.33001,0.0296 -4.91517,2.65027 -6.25825,5.24472 -1.36441,2.63564 -2.14509,5.1317 -1.82359,8.33696 0.14,1.39549 1.46882,3.17666 3.05965,4.06963 -0.33811,-2.76779 -0.14767,-5.47572 0.46701,-7.72353 0.61469,-2.24781 2.44942,-5.89505 4.61577,-5.89016 2.16637,0.005 4.00105,3.64904 4.61573,5.89685 0.61466,2.24781 0.80512,4.95575 0.467,7.72354 1.59084,-0.89298 2.91967,-2.6742 3.05966,-4.06969 0.3215,-3.20526 -0.45907,-5.70121 -1.82349,-8.33685 -1.33842,-2.58545 -3.91038,-5.19673 -6.26873,-5.25093 -0.0369,-8.3e-4 -0.0738,-9.9e-4 -0.11071,-5.2e-4 z m 0.11391,7.69891 a 2.1388648,2.1388648 0 0 0 -1.02798,0.25166 2.1388648,2.1388648 0 0 0 -0.88029,2.8939 2.1388648,2.1388648 0 0 0 2.89389,0.88028 2.1388648,2.1388648 0 0 0 0.8803,-2.8939 2.1388648,2.1388648 0 0 0 -1.86592,-1.13194 z"
     id="path3751" />
</svg>
