<?xml version="1.0" encoding="UTF-8" standalone="no"?>
<svg
   width="800"
   height="160"
   viewBox="0 0 211.66666 42.333335"
   version="1.1"
   id="svg6133"
   sodipodi:docname="banner_store.svg"
   inkscape:version="1.1.2 (b8e25be833, 2022-02-05)"
   xmlns:inkscape="http://www.inkscape.org/namespaces/inkscape"
   xmlns:sodipodi="http://sodipodi.sourceforge.net/DTD/sodipodi-0.dtd"
   xmlns:xlink="http://www.w3.org/1999/xlink"
   xmlns="http://www.w3.org/2000/svg"
   xmlns:svg="http://www.w3.org/2000/svg"
   xmlns:rdf="http://www.w3.org/1999/02/22-rdf-syntax-ns#"
   xmlns:cc="http://creativecommons.org/ns#"
   xmlns:dc="http://purl.org/dc/elements/1.1/">
  <sodipodi:namedview
     pagecolor="#000000"
     bordercolor="#666666"
     borderopacity="1"
     objecttolerance="10"
     gridtolerance="10"
     guidetolerance="10"
     inkscape:pageopacity="0"
     inkscape:pageshadow="2"
     inkscape:window-width="1920"
     inkscape:window-height="1137"
     id="namedview22608"
     showgrid="false"
     inkscape:zoom="0.98318227"
     inkscape:cx="295.46912"
     inkscape:cy="43.735532"
     inkscape:window-x="-8"
     inkscape:window-y="-8"
     inkscape:window-maximized="1"
     inkscape:current-layer="svg6133"
     inkscape:pagecheckerboard="0"
     inkscape:snap-page="false" />
  <defs
     id="defs6127">
    <linearGradient
       xlink:href="#linearGradient3077"
       id="linearGradient4375"
       gradientUnits="userSpaceOnUse"
       x1="172.91336"
       y1="78.689407"
       x2="193.7847"
       y2="53.806618"
       gradientTransform="translate(-149.57253,-20.521279)" />
    <linearGradient
       id="linearGradient3077">
      <stop
         style="stop-color:#0048a5;stop-opacity:1"
         offset="0"
         id="stop3073" />
      <stop
         style="stop-color:#4b86d1;stop-opacity:1"
         offset="1"
         id="stop3075" />
    </linearGradient>
    <linearGradient
       xlink:href="#linearGradient4546"
       id="linearGradient4168"
       gradientUnits="userSpaceOnUse"
       x1="265.46716"
       y1="72.952255"
       x2="265.52728"
       y2="62.66238"
       gradientTransform="translate(-148.24047,-46.921293)" />
    <linearGradient
       id="linearGradient4546">
      <stop
         id="stop4542"
         offset="0"
         style="stop-color:#9c9c9c;stop-opacity:1" />
      <stop
         id="stop4544"
         offset="1"
         style="stop-color:#c7c7c7;stop-opacity:1" />
    </linearGradient>
    <linearGradient
       xlink:href="#linearGradient4546"
       id="linearGradient6074"
       gradientUnits="userSpaceOnUse"
       x1="265.46716"
       y1="72.952255"
       x2="265.52728"
       y2="62.66238"
       gradientTransform="translate(-148.24046,-46.921294)" />
    <linearGradient
       xlink:href="#linearGradient3077"
       id="linearGradient6082"
       gradientUnits="userSpaceOnUse"
       x1="172.91336"
       y1="78.689407"
       x2="193.7847"
       y2="53.806618"
       gradientTransform="translate(-148.2405,-45.829701)" />
    <filter
       style="color-interpolation-filters:sRGB"
       id="filter3777"
       x="-0.11323257"
       width="1.2264651"
       y="-0.10322961"
       height="1.2064592">
      <feGaussianBlur
         stdDeviation="1.1789054"
         id="feGaussianBlur3779" />
    </filter>
    <filter
       style="color-interpolation-filters:sRGB"
       id="filter3801"
       x="-0.025709525"
       width="1.0514191"
       y="-0.36093335"
       height="1.7218667">
      <feGaussianBlur
         stdDeviation="1.398881"
         id="feGaussianBlur3803" />
    </filter>
    <linearGradient
       xlink:href="#linearGradient3077"
       id="linearGradient6756"
       gradientUnits="userSpaceOnUse"
       gradientTransform="translate(-148.24051,-45.829702)"
       x1="172.91336"
       y1="78.689407"
       x2="193.7847"
       y2="53.806618" />
    <linearGradient
       gradientUnits="userSpaceOnUse"
       y2="53.806618"
       x2="193.7847"
       y1="78.689407"
       x1="172.91336"
       id="linearGradient3079"
       xlink:href="#linearGradient3077"
       gradientTransform="translate(-149.07379,19.299547)" />
    <linearGradient
       gradientUnits="userSpaceOnUse"
       y2="62.66238"
       x2="265.52728"
       y1="72.952255"
       x1="265.46716"
       id="linearGradient1695"
       xlink:href="#linearGradient2768"
       gradientTransform="translate(-148.24046,-46.92129)" />
    <linearGradient
       id="linearGradient2768">
      <stop
         id="stop2764"
         offset="0"
         style="stop-color:#414141;stop-opacity:1" />
      <stop
         id="stop2766"
         offset="1"
         style="stop-color:#767676;stop-opacity:1" />
    </linearGradient>
    <linearGradient
       y2="62.66238"
       x2="265.52728"
       y1="72.952255"
       x1="265.46716"
       gradientTransform="translate(-148.24047,-46.921293)"
       gradientUnits="userSpaceOnUse"
       id="linearGradient20105"
       xlink:href="#linearGradient2648" />
    <linearGradient
       y2="62.66238"
       x2="265.52728"
       y1="72.952255"
       x1="265.46716"
       gradientTransform="translate(-148.24046,-46.921294)"
       gradientUnits="userSpaceOnUse"
       id="linearGradient20191"
       xlink:href="#linearGradient4546" />
    <linearGradient
       inkscape:collect="always"
       id="linearGradient2648">
      <stop
         style="stop-color:#ebebeb;stop-opacity:1"
         offset="0"
         id="stop2644" />
      <stop
         style="stop-color:#ffffff;stop-opacity:1"
         offset="1"
         id="stop2646" />
    </linearGradient>
    <linearGradient
       inkscape:collect="always"
       xlink:href="#linearGradient3077"
       id="linearGradient4375-3"
       gradientUnits="userSpaceOnUse"
       x1="172.91336"
       y1="78.689407"
       x2="193.7847"
       y2="53.806618"
       gradientTransform="translate(-148.24051,-45.556943)" />
    <filter
       inkscape:collect="always"
       style="color-interpolation-filters:sRGB"
       id="filter3777-8"
       x="-0.11323257"
       width="1.2264651"
       y="-0.10322966"
       height="1.2064593">
      <feGaussianBlur
         inkscape:collect="always"
         stdDeviation="1.1789054"
         id="feGaussianBlur3779-3" />
    </filter>
    <linearGradient
       inkscape:collect="always"
       xlink:href="#linearGradient3077"
       id="linearGradient924"
       gradientUnits="userSpaceOnUse"
       gradientTransform="translate(-148.24051,-45.556943)"
       x1="172.91336"
       y1="78.689407"
       x2="193.7847"
       y2="53.806618" />
    <linearGradient
       inkscape:collect="always"
       xlink:href="#linearGradient3077"
       id="linearGradient926"
       gradientUnits="userSpaceOnUse"
       gradientTransform="translate(-148.24051,-45.556943)"
       x1="172.91336"
       y1="78.689407"
       x2="193.7847"
       y2="53.806618" />
    <linearGradient
       inkscape:collect="always"
       xlink:href="#linearGradient2648"
       id="linearGradient4823"
       gradientUnits="userSpaceOnUse"
       gradientTransform="translate(-148.24051,-46.921303)"
       x1="265.46716"
       y1="72.952255"
       x2="265.52728"
       y2="62.66238" />
    <linearGradient
       inkscape:collect="always"
       xlink:href="#linearGradient4546"
       id="linearGradient1269"
       gradientUnits="userSpaceOnUse"
       gradientTransform="translate(-131.97081,-46.921303)"
       x1="265.46716"
       y1="72.952255"
       x2="265.52728"
       y2="62.66238" />
    <filter
       inkscape:collect="always"
       style="color-interpolation-filters:sRGB"
       id="filter1271"
       x="-0.025840022"
       y="-0.33704001"
       width="1.05168"
       height="1.67408">
      <feGaussianBlur
         inkscape:collect="always"
         stdDeviation="1.3062727"
         id="feGaussianBlur1273" />
    </filter>
    <linearGradient
       inkscape:collect="always"
       xlink:href="#linearGradient2648"
       id="linearGradient1310"
       gradientUnits="userSpaceOnUse"
       gradientTransform="translate(-148.24051,-46.921303)"
       x1="265.46716"
       y1="72.952255"
       x2="265.52728"
       y2="62.66238" />
    <linearGradient
       inkscape:collect="always"
       xlink:href="#linearGradient2648"
       id="linearGradient1312"
       gradientUnits="userSpaceOnUse"
       gradientTransform="translate(-148.24051,-46.921303)"
       x1="265.46716"
       y1="72.952255"
       x2="265.52728"
       y2="62.66238" />
    <linearGradient
       inkscape:collect="always"
       xlink:href="#linearGradient2648"
       id="linearGradient1314"
       gradientUnits="userSpaceOnUse"
       gradientTransform="translate(-148.24051,-46.921303)"
       x1="265.46716"
       y1="72.952255"
       x2="265.52728"
       y2="62.66238" />
    <linearGradient
       inkscape:collect="always"
       xlink:href="#linearGradient2648"
       id="linearGradient1316"
       gradientUnits="userSpaceOnUse"
       gradientTransform="translate(-148.24051,-46.921303)"
       x1="265.46716"
       y1="72.952255"
       x2="265.52728"
       y2="62.66238" />
    <linearGradient
       inkscape:collect="always"
       xlink:href="#linearGradient2648"
       id="linearGradient1318"
       gradientUnits="userSpaceOnUse"
       gradientTransform="translate(-148.24051,-46.921303)"
       x1="265.46716"
       y1="72.952255"
       x2="265.52728"
       y2="62.66238" />
    <linearGradient
       inkscape:collect="always"
       xlink:href="#linearGradient2648"
       id="linearGradient1320"
       gradientUnits="userSpaceOnUse"
       gradientTransform="translate(-148.24051,-46.921303)"
       x1="265.46716"
       y1="72.952255"
       x2="265.52728"
       y2="62.66238" />
    <linearGradient
       inkscape:collect="always"
       xlink:href="#linearGradient2648"
       id="linearGradient1322"
       gradientUnits="userSpaceOnUse"
       gradientTransform="translate(-148.24051,-46.921303)"
       x1="265.46716"
       y1="72.952255"
       x2="265.52728"
       y2="62.66238" />
    <linearGradient
       inkscape:collect="always"
       xlink:href="#linearGradient2648"
       id="linearGradient1324"
       gradientUnits="userSpaceOnUse"
       gradientTransform="translate(-148.24051,-46.921303)"
       x1="265.46716"
       y1="72.952255"
       x2="265.52728"
       y2="62.66238" />
    <linearGradient
       inkscape:collect="always"
       xlink:href="#linearGradient2648"
       id="linearGradient1326"
       gradientUnits="userSpaceOnUse"
       gradientTransform="translate(-148.24051,-46.921303)"
       x1="265.46716"
       y1="72.952255"
       x2="265.52728"
       y2="62.66238" />
    <linearGradient
       inkscape:collect="always"
       xlink:href="#linearGradient2648"
       id="linearGradient1328"
       gradientUnits="userSpaceOnUse"
       gradientTransform="translate(-148.24051,-46.921303)"
       x1="265.46716"
       y1="72.952255"
       x2="265.52728"
       y2="62.66238" />
    <linearGradient
       inkscape:collect="always"
       xlink:href="#linearGradient2648"
       id="linearGradient1330"
       gradientUnits="userSpaceOnUse"
       gradientTransform="translate(-148.24051,-46.921303)"
       x1="265.46716"
       y1="72.952255"
       x2="265.52728"
       y2="62.66238" />
    <linearGradient
       inkscape:collect="always"
       xlink:href="#linearGradient2648"
       id="linearGradient1332"
       gradientUnits="userSpaceOnUse"
       gradientTransform="translate(-148.24051,-46.921303)"
       x1="265.46716"
       y1="72.952255"
       x2="265.52728"
       y2="62.66238" />
    <linearGradient
       inkscape:collect="always"
       xlink:href="#linearGradient2648"
       id="linearGradient1334"
       gradientUnits="userSpaceOnUse"
       gradientTransform="translate(-148.24051,-46.921303)"
       x1="265.46716"
       y1="72.952255"
       x2="265.52728"
       y2="62.66238" />
    <linearGradient
       inkscape:collect="always"
       xlink:href="#linearGradient2648"
       id="linearGradient1336"
       gradientUnits="userSpaceOnUse"
       gradientTransform="translate(-148.24051,-46.921303)"
       x1="265.46716"
       y1="72.952255"
       x2="265.52728"
       y2="62.66238" />
    <linearGradient
       inkscape:collect="always"
       xlink:href="#linearGradient2648"
       id="linearGradient1338"
       gradientUnits="userSpaceOnUse"
       gradientTransform="translate(-148.24051,-46.921303)"
       x1="265.46716"
       y1="72.952255"
       x2="265.52728"
       y2="62.66238" />
    <linearGradient
       inkscape:collect="always"
       xlink:href="#linearGradient2648"
       id="linearGradient1340"
       gradientUnits="userSpaceOnUse"
       gradientTransform="translate(-148.24051,-46.921303)"
       x1="265.46716"
       y1="72.952255"
       x2="265.52728"
       y2="62.66238" />
    <linearGradient
       inkscape:collect="always"
       xlink:href="#linearGradient2648"
       id="linearGradient1342"
       gradientUnits="userSpaceOnUse"
       gradientTransform="translate(-148.24051,-46.921303)"
       x1="265.46716"
       y1="72.952255"
       x2="265.52728"
       y2="62.66238" />
  </defs>
  <metadata
     id="metadata6130">
    <rdf:RDF>
      <cc:Work
         rdf:about="">
        <dc:format>image/svg+xml</dc:format>
        <dc:type
           rdf:resource="http://purl.org/dc/dcmitype/StillImage" />
      </cc:Work>
    </rdf:RDF>
  </metadata>
  <path
     inkscape:export-ydpi="96"
     inkscape:export-xdpi="96"
     inkscape:export-filename="D:\Repos\art\design\app_manager\maket\dark\21-demo-store.png"
     inkscape:connector-curvature="0"
     id="path20168"
     d="m 33.57902,7.735196 c -1.4442,-0.0064 -2.8927,0.954001 -6.25043,2.872812 -6.71547,3.837621 -6.25114,3.041584 -6.2854,10.776159 -0.0342,7.734574 -0.49148,6.934451 6.18973,10.831404 6.68121,3.896953 5.75966,3.892866 12.47511,0.05524 6.71548,-3.83762 6.25114,-3.041585 6.2854,-10.776159 0.0342,-7.734574 0.49148,-6.934449 -6.18973,-10.831404 -3.34061,-1.948477 -4.78049,-2.92166 -6.22468,-2.928056 z m -0.0114,2.461738 c 1.45604,0.0065 2.90904,0.701661 5.28878,2.089686 4.75946,2.776053 5.28172,3.689902 5.2573,9.199739 -0.0244,5.509838 -0.5547,6.419007 -5.33856,9.152792 -4.78385,2.733785 -5.8364,2.729104 -10.59587,-0.04694 -4.75945,-2.776052 -5.28169,-3.689902 -5.2573,-9.19974 0.0245,-5.509837 0.5547,-6.419006 5.33857,-9.152792 2.39193,-1.366892 3.85104,-2.049187 5.30708,-2.04274 z m -0.1334,1.396497 c -2.33001,0.02955 -4.91517,2.650267 -6.25825,5.24472 -1.36441,2.635637 -2.14509,5.131701 -1.82359,8.336959 0.14,1.395489 1.46882,3.176657 3.05965,4.069632 -0.33811,-2.76779 -0.14767,-5.47572 0.46701,-7.723532 0.61469,-2.247812 2.44942,-5.895055 4.61577,-5.89016 2.16637,0.0049 4.00105,3.649038 4.61573,5.896851 0.61466,2.247811 0.80512,4.955742 0.467,7.723532 1.59084,-0.892976 2.91967,-2.674196 3.05966,-4.069685 0.3215,-3.205258 -0.45907,-5.701215 -1.82349,-8.336853 -1.33842,-2.585447 -3.91038,-5.196724 -6.26873,-5.25093 -0.0369,-8.3e-4 -0.0738,-9.88e-4 -0.11071,-5.18e-4 z m 0.11391,7.698908 a 2.1388648,2.1388648 0 0 0 -1.02798,0.251655 2.1388648,2.1388648 0 0 0 -0.88029,2.893903 2.1388648,2.1388648 0 0 0 2.89389,0.880283 2.1388648,2.1388648 0 0 0 0.8803,-2.893901 2.1388648,2.1388648 0 0 0 -1.86592,-1.13194 z"
     style="opacity:0.65;fill:url(#linearGradient924);fill-opacity:1;stroke:none;stroke-width:0.792418;stroke-miterlimit:4;stroke-dasharray:none;stroke-opacity:1;filter:url(#filter3777-8)" />
  <path
     inkscape:export-ydpi="96"
     inkscape:export-xdpi="96"
     inkscape:export-filename="D:\Repos\art\design\app_manager\maket\dark\21-demo-store.png"
     inkscape:connector-curvature="0"
     id="path20174"
     d="m 33.57902,7.735196 c -1.4442,-0.0064 -2.8927,0.954001 -6.25043,2.872812 -6.71547,3.837621 -6.25114,3.041584 -6.2854,10.776159 -0.0342,7.734574 -0.49148,6.934451 6.18973,10.831404 6.68121,3.896953 5.75966,3.892866 12.47511,0.05524 6.71548,-3.83762 6.25114,-3.041585 6.2854,-10.776159 0.0342,-7.734574 0.49148,-6.934449 -6.18973,-10.831404 -3.34061,-1.948477 -4.78049,-2.92166 -6.22468,-2.928056 z m -0.0114,2.461738 c 1.45604,0.0065 2.90904,0.701661 5.28878,2.089686 4.75946,2.776053 5.28172,3.689902 5.2573,9.199739 -0.0244,5.509838 -0.5547,6.419007 -5.33856,9.152792 -4.78385,2.733785 -5.8364,2.729104 -10.59587,-0.04694 -4.75945,-2.776052 -5.28169,-3.689902 -5.2573,-9.19974 0.0245,-5.509837 0.5547,-6.419006 5.33857,-9.152792 2.39193,-1.366892 3.85104,-2.049187 5.30708,-2.04274 z m -0.1334,1.396497 c -2.33001,0.02955 -4.91517,2.650267 -6.25825,5.24472 -1.36441,2.635637 -2.14509,5.131701 -1.82359,8.336959 0.14,1.395489 1.46882,3.176657 3.05965,4.069632 -0.33811,-2.76779 -0.14767,-5.47572 0.46701,-7.723532 0.61469,-2.247812 2.44942,-5.895055 4.61577,-5.89016 2.16637,0.0049 4.00105,3.649038 4.61573,5.896851 0.61466,2.247811 0.80512,4.955742 0.467,7.723532 1.59084,-0.892976 2.91967,-2.674196 3.05966,-4.069685 0.3215,-3.205258 -0.45907,-5.701215 -1.82349,-8.336853 -1.33842,-2.585447 -3.91038,-5.196724 -6.26873,-5.25093 -0.0369,-8.3e-4 -0.0738,-9.88e-4 -0.11071,-5.18e-4 z m 0.11391,7.698908 a 2.1388648,2.1388648 0 0 0 -1.02798,0.251655 2.1388648,2.1388648 0 0 0 -0.88029,2.893903 2.1388648,2.1388648 0 0 0 2.89389,0.880283 2.1388648,2.1388648 0 0 0 0.8803,-2.893901 2.1388648,2.1388648 0 0 0 -1.86592,-1.13194 z"
     style="fill:url(#linearGradient926);fill-opacity:1;stroke:none;stroke-width:0.792418;stroke-miterlimit:4;stroke-dasharray:none;stroke-opacity:1" />
  <path
     style="fill:url(#linearGradient4375-3);fill-opacity:1;stroke:none;stroke-width:0.792418;stroke-miterlimit:4;stroke-dasharray:none;stroke-opacity:1"
     d="m 33.57902,7.735196 c -1.4442,-0.0064 -2.8927,0.954001 -6.25043,2.872812 -6.71547,3.837621 -6.25114,3.041584 -6.2854,10.776159 -0.0342,7.734574 -0.49148,6.934451 6.18973,10.831404 6.68121,3.896953 5.75966,3.892866 12.47511,0.05524 6.71548,-3.83762 6.25114,-3.041585 6.2854,-10.776159 0.0342,-7.734574 0.49148,-6.934449 -6.18973,-10.831404 -3.34061,-1.948477 -4.78049,-2.92166 -6.22468,-2.928056 z m -0.0114,2.461738 c 1.45604,0.0065 2.90904,0.701661 5.28878,2.089686 4.75946,2.776053 5.28172,3.689902 5.2573,9.199739 -0.0244,5.509838 -0.5547,6.419007 -5.33856,9.152792 -4.78385,2.733785 -5.8364,2.729104 -10.59587,-0.04694 -4.75945,-2.776052 -5.28169,-3.689902 -5.2573,-9.19974 0.0245,-5.509837 0.5547,-6.419006 5.33857,-9.152792 2.39193,-1.366892 3.85104,-2.049187 5.30708,-2.04274 z m -0.1334,1.396497 c -2.33001,0.02955 -4.91517,2.650267 -6.25825,5.24472 -1.36441,2.635637 -2.14509,5.131701 -1.82359,8.336959 0.14,1.395489 1.46882,3.176657 3.05965,4.069632 -0.33811,-2.76779 -0.14767,-5.47572 0.46701,-7.723532 0.61469,-2.247812 2.44942,-5.895055 4.61577,-5.89016 2.16637,0.0049 4.00105,3.649038 4.61573,5.896851 0.61466,2.247811 0.80512,4.955742 0.467,7.723532 1.59084,-0.892976 2.91967,-2.674196 3.05966,-4.069685 0.3215,-3.205258 -0.45907,-5.701215 -1.82349,-8.336853 -1.33842,-2.585447 -3.91038,-5.196724 -6.26873,-5.25093 -0.0369,-8.3e-4 -0.0738,-9.88e-4 -0.11071,-5.18e-4 z m 0.11391,7.698908 a 2.1388648,2.1388648 0 0 0 -1.02798,0.251655 2.1388648,2.1388648 0 0 0 -0.88029,2.893903 2.1388648,2.1388648 0 0 0 2.89389,0.880283 2.1388648,2.1388648 0 0 0 0.8803,-2.893901 2.1388648,2.1388648 0 0 0 -1.86592,-1.13194 z"
     id="path20176"
     inkscape:connector-curvature="0"
     inkscape:export-filename="D:\Repos\art\design\app_manager\maket\dark\21-demo-store.png"
     inkscape:export-xdpi="96"
     inkscape:export-ydpi="96" />
  <path
     style="display:inline;opacity:0.65;fill:url(#linearGradient6082);fill-opacity:1;stroke:none;stroke-width:0.79241806;stroke-miterlimit:4;stroke-dasharray:none;stroke-opacity:1;filter:url(#filter3777)"
     d="m 33.579022,7.46244 c -1.4442,-0.006 -2.8927,0.954 -6.25043,2.87281 -6.71547,3.83762 -6.25114,3.04158 -6.2854,10.77616 -0.0342,7.73457 -0.49148,6.93445 6.18973,10.83141 6.68121,3.89695 5.75966,3.89286 12.47511,0.0552 6.71548,-3.83763 6.25114,-3.04159 6.2854,-10.77617 0.0342,-7.73457 0.49148,-6.93444 -6.18973,-10.8314 -3.34061,-1.94848 -4.78049,-2.92166 -6.22468,-2.92806 z m -0.0114,2.46174 c 1.45604,0.006 2.90904,0.70166 5.28878,2.08968 4.75946,2.77606 5.28172,3.6899 5.2573,9.19974 -0.0244,5.50984 -0.5547,6.41901 -5.33856,9.15279 -4.78385,2.73379 -5.8364,2.72911 -10.59587,-0.0469 -4.75945,-2.77605 -5.28169,-3.6899 -5.2573,-9.19974 0.0245,-5.50983 0.5547,-6.419 5.33857,-9.15279 2.39193,-1.36689 3.85104,-2.04919 5.30708,-2.04274 z m -0.1334,1.39649 c -2.33001,0.0296 -4.91517,2.65027 -6.25825,5.24472 -1.36441,2.63564 -2.14509,5.1317 -1.82359,8.33696 0.14,1.39549 1.46882,3.17666 3.05965,4.06963 -0.33811,-2.76779 -0.14767,-5.47572 0.46701,-7.72353 0.61469,-2.24781 2.44942,-5.89505 4.61577,-5.89016 2.16637,0.005 4.00105,3.64904 4.61573,5.89685 0.61466,2.24781 0.80512,4.95575 0.467,7.72354 1.59084,-0.89298 2.91967,-2.6742 3.05966,-4.06969 0.3215,-3.20526 -0.45907,-5.70121 -1.82349,-8.33685 -1.33842,-2.58545 -3.91038,-5.19673 -6.26873,-5.25093 -0.0369,-8.3e-4 -0.0738,-9.9e-4 -0.11071,-5.2e-4 z m 0.11391,7.69891 a 2.1388648,2.1388648 0 0 0 -1.02798,0.25166 2.1388648,2.1388648 0 0 0 -0.88029,2.8939 2.1388648,2.1388648 0 0 0 2.89389,0.88028 2.1388648,2.1388648 0 0 0 0.8803,-2.8939 2.1388648,2.1388648 0 0 0 -1.86592,-1.13194 z"
     id="path3751" />
  <text
     inkscape:export-ydpi="96"
     inkscape:export-xdpi="96"
     inkscape:export-filename="D:\Repos\art\design\app_manager\maket\dark\21-demo-store.png"
     id="text1267"
     y="23.967514"
     x="69.122879"
     style="font-style:normal;font-variant:normal;font-weight:normal;font-stretch:normal;font-size:10.5833px;line-height:1.25;font-family:'Days One';-inkscape-font-specification:'Days One';letter-spacing:0px;word-spacing:0px;display:inline;fill:url(#linearGradient1269);fill-opacity:1;stroke:none;stroke-width:0.264583;filter:url(#filter1271)"
     xml:space="preserve"><tspan
       style="font-style:normal;font-variant:normal;font-weight:normal;font-stretch:normal;font-size:10.5833px;font-family:'Days One';-inkscape-font-specification:'Days One';fill:url(#linearGradient1269);fill-opacity:1;stroke-width:0.264583"
       y="23.967514"
       x="69.122879"
       id="tspan1265"
       sodipodi:role="line">Verge3D Asset Store</tspan></text>
  <g
     aria-label="Verge3D Asset Store"
     id="text20172-6"
     style="font-size:10.5833px;line-height:1.25;font-family:'Days One';-inkscape-font-specification:'Days One';letter-spacing:0px;word-spacing:0px;display:inline;fill:url(#linearGradient4823);stroke-width:0.264583"
     transform="translate(16.269701)">
    <path
       d="m 52.992706,16.991218 q -0.03101,-0.06201 -0.03101,-0.134358 0,-0.07752 0.09302,-0.186035 0.09819,-0.113688 0.273885,-0.113688 h 1.13171 q 0.403075,0 0.614947,0.490925 l 1.999872,4.454494 1.999872,-4.454494 q 0.211872,-0.485757 0.614947,-0.490925 h 1.13171 q 0.180867,0 0.273885,0.113688 0.09302,0.10852 0.09302,0.186035 0,0.07235 -0.02584,0.134358 l -2.976553,6.449198 q -0.242879,0.527098 -0.738971,0.527098 h -0.744138 q -0.496092,0 -0.738971,-0.527098 z"
       id="path1275"
       style="fill:url(#linearGradient1310)" />
    <path
       d="m 62.046387,23.316393 q -0.795814,-0.754473 -0.795814,-2.170403 0,-1.421098 0.800982,-2.180739 0.800982,-0.764808 2.222079,-0.764808 1.421098,0 2.216912,0.744138 0.795815,0.73897 0.795815,2.123894 v 0.294555 q 0,0.139526 -0.09302,0.232543 -0.08785,0.08785 -0.227376,0.08785 h -3.891223 q 0.05168,0.635618 0.361734,0.925005 0.315225,0.289387 1.00252,0.289387 0.687294,0 0.940508,-0.310057 0.253213,-0.310058 0.625282,-0.315226 h 0.769977 q 0.139526,0 0.227375,0.09302 0.09302,0.08785 0.09302,0.227375 0,1.483109 -2.826692,1.477942 -1.426265,0 -2.22208,-0.754474 z m 1.018023,-2.723339 h 2.402946 q -0.05168,-1.21956 -1.198889,-1.21956 -1.142046,0 -1.204057,1.21956 z"
       id="path1277"
       style="fill:url(#linearGradient1312)" />
    <path
       d="m 72.154266,19.616372 -0.795815,-0.031 q -0.69763,0 -1.333248,0.764808 v 3.302114 q 0,0.139526 -0.09302,0.227375 -0.08785,0.08785 -0.222208,0.08785 H 68.55243 q -0.139526,0 -0.227376,-0.08785 -0.08785,-0.08785 -0.08785,-0.227375 v -5.028101 q 0,-0.139526 0.08785,-0.227376 0.09302,-0.09302 0.227376,-0.09302 h 1.157548 q 0.139526,0 0.227376,0.09302 0.08785,0.08785 0.08785,0.227376 v 0.32556 q 0.527098,-0.382404 1.012855,-0.563271 0.490925,-0.186034 1.281572,-0.186034 0.139526,0 0.227375,0.09302 0.09302,0.08785 0.09302,0.222208 v 0.785479 q 0,0.139526 -0.09302,0.227376 -0.08785,0.08785 -0.227375,0.08785 z"
       id="path1279"
       style="fill:url(#linearGradient1314)" />
    <path
       d="m 75.673418,23.533433 q -1.173051,0 -1.896519,-0.707964 -0.7183,-0.707965 -0.7183,-1.963699 0,-1.255733 0.821653,-1.95853 0.821652,-0.702797 2.356438,-0.702797 0.749305,0 1.555455,0.170531 0.80615,0.165364 1.214393,0.408243 v 4.785222 q 0,1.152381 -0.759642,1.700149 -0.759641,0.552936 -2.134229,0.552936 -1.369422,0 -2.11356,-0.346231 -0.73897,-0.341063 -0.73897,-1.13171 0,-0.139526 0.08785,-0.232543 0.09302,-0.08785 0.232543,-0.08785 h 0.769977 q 0.372069,0 0.594277,0.273885 0.284219,0.351398 1.007687,0.351398 0.728635,0 0.997352,-0.237711 0.268717,-0.237711 0.268717,-0.842323 v -0.242878 q -0.826821,0.211872 -1.545121,0.211872 z m 0.454751,-4.082425 q -1.224727,-0.0052 -1.224727,1.41593 0,1.41593 1.193722,1.41593 0.496092,0 1.121375,-0.155029 v -2.563143 q -0.444416,-0.118855 -1.09037,-0.113688 z"
       id="path1281"
       style="fill:url(#linearGradient1316)" />
    <path
       d="m 80.753196,23.316393 q -0.795814,-0.754473 -0.795814,-2.170403 0,-1.421098 0.800982,-2.180739 0.800982,-0.764808 2.222079,-0.764808 1.421098,0 2.216912,0.744138 0.795815,0.73897 0.795815,2.123894 v 0.294555 q 0,0.139526 -0.09302,0.232543 -0.08785,0.08785 -0.227376,0.08785 h -3.891223 q 0.05168,0.635618 0.361734,0.925005 0.315225,0.289387 1.00252,0.289387 0.687294,0 0.940508,-0.310057 0.253213,-0.310058 0.625282,-0.315226 h 0.769977 q 0.139526,0 0.227375,0.09302 0.09302,0.08785 0.09302,0.227375 0,1.483109 -2.826692,1.477942 -1.426265,0 -2.22208,-0.754474 z m 1.018023,-2.723339 h 2.402946 q -0.05168,-1.21956 -1.198889,-1.21956 -1.142046,0 -1.204057,1.21956 z"
       id="path1283"
       style="fill:url(#linearGradient1318)" />
    <path
       d="m 86.571944,21.946972 q 0,-0.310058 0.180867,-0.439248 0.180867,-0.134359 0.351399,-0.134359 h 0.60978 q 0.480589,0 0.754473,0.58911 0.273885,0.589109 1.260901,0.589109 h 0.738971 q 0.635618,0 0.930173,-0.180867 0.294554,-0.180867 0.294554,-0.614947 0,-0.434081 -0.294554,-0.614948 -0.294555,-0.180867 -0.930173,-0.180867 h -0.930173 q -0.201537,0 -0.346231,-0.139526 -0.144693,-0.144693 -0.144693,-0.346231 v -0.423745 q 0,-0.191202 0.139525,-0.335896 0.139526,-0.149861 0.330729,-0.149861 h 0.759641 q 0.687294,0 0.997352,-0.180867 0.315225,-0.180867 0.315225,-0.614947 0,-0.434081 -0.315225,-0.60978 -0.310058,-0.180867 -0.997352,-0.180867 h -0.382405 q -0.992184,0 -1.312577,0.635618 -0.232543,0.485757 -0.697629,0.485757 h -0.614948 q -0.248046,0 -0.387572,-0.180867 -0.139526,-0.180867 -0.139526,-0.39274 0,-0.589109 0.449584,-1.059363 0.449583,-0.475422 1.121375,-0.713133 0.671791,-0.237711 1.400426,-0.237711 h 0.713133 q 3.110911,0 3.110911,2.263421 0,0.945675 -0.707965,1.483109 0.811318,0.511595 0.811318,1.493444 0,1.193722 -0.764809,1.725987 -0.759641,0.527098 -2.227247,0.527098 h -1.100705 q -1.157548,0 -2.06705,-0.568439 -0.909503,-0.573606 -0.909503,-1.493444 z"
       id="path1285"
       style="fill:url(#linearGradient1320)" />
    <path
       d="m 94.700621,23.492092 v -6.433695 q 0,-0.211873 0.144694,-0.356566 0.144694,-0.144694 0.346231,-0.144694 h 2.888703 q 2.242751,0 3.260771,0.899167 1.02319,0.894 1.02319,2.811189 0,1.912022 -1.02319,2.806022 -1.01802,0.893999 -3.260771,0.893999 h -2.888703 q -0.201537,0 -0.346231,-0.134358 -0.144694,-0.139526 -0.144694,-0.341064 z m 1.948196,-0.987016 h 1.374588 q 1.390092,0 1.891352,-0.506428 0.501263,-0.506427 0.501263,-1.731155 0,-1.229895 -0.501263,-1.736322 -0.50126,-0.511595 -1.891352,-0.511595 h -1.374588 z"
       id="path1287"
       style="fill:url(#linearGradient1322)" />
    <path
       d="m 106.51898,23.492092 1.29708,-4.91958 q 0.5271,-2.010207 3.4313,-2.015375 h 2.78535 q 0.19121,0 0.31523,0.144694 0.12919,0.144693 0.12919,0.335896 v 6.454365 q 0,0.201538 -0.14469,0.341064 -0.1447,0.134358 -0.34624,0.134358 h -0.97151 q -0.21187,0 -0.3514,-0.134358 -0.13436,-0.139526 -0.13436,-0.351399 v -1.302242 h -3.67418 l -0.34623,1.302242 q -0.0517,0.211873 -0.23254,0.351399 -0.18087,0.134358 -0.38241,0.134358 h -1.01802 q -0.20154,0 -0.28939,-0.113688 -0.0879,-0.118855 -0.0879,-0.206705 0.005,-0.08785 0.0207,-0.155029 z m 2.71818,-2.775015 h 3.29177 v -2.697501 h -1.47277 q -0.49609,0 -0.86816,0.284219 -0.3669,0.279052 -0.49609,0.754474 z"
       id="path1289"
       style="fill:url(#linearGradient1324)" />
    <path
       d="m 115.53132,19.869586 q 0,-1.669143 2.69234,-1.669143 2.83186,0 2.83186,1.483108 0,0.134359 -0.0879,0.227376 -0.0879,0.08785 -0.22738,0.08785 h -0.76997 q -0.37207,0 -0.62529,-0.310058 -0.25321,-0.315225 -0.99735,-0.315225 -1.02319,0 -1.02319,0.496092 0,0.232543 0.39791,0.387572 0.40307,0.155029 0.97668,0.273884 0.57877,0.113688 1.15238,0.294555 0.57361,0.180867 0.97151,0.578774 0.40308,0.39274 0.40308,0.997352 0,1.669144 -2.8422,1.669144 -2.84219,0 -2.84219,-1.477942 0,-0.139526 0.0879,-0.227375 0.093,-0.09302 0.23254,-0.09302 h 0.76998 q 0.37207,0 0.62528,0.315226 0.25322,0.310057 0.99735,0.310057 1.18339,0 1.18339,-0.496092 0,-0.232543 -0.40308,-0.387572 -0.3979,-0.155029 -0.97668,-0.273884 -0.57877,-0.124023 -1.15238,-0.299722 -0.56844,-0.180867 -0.97151,-0.578775 -0.40308,-0.397907 -0.40308,-0.992184 z"
       id="path1291"
       style="fill:url(#linearGradient1326)" />
    <path
       d="m 121.86167,19.869586 q 0,-1.669143 2.69233,-1.669143 2.83186,0 2.83186,1.483108 0,0.134359 -0.0878,0.227376 -0.0879,0.08785 -0.22738,0.08785 h -0.76997 q -0.37207,0 -0.62529,-0.310058 -0.25321,-0.315225 -0.99735,-0.315225 -1.02319,0 -1.02319,0.496092 0,0.232543 0.39791,0.387572 0.40307,0.155029 0.97668,0.273884 0.57877,0.113688 1.15238,0.294555 0.57361,0.180867 0.97152,0.578774 0.40307,0.39274 0.40307,0.997352 0,1.669144 -2.84219,1.669144 -2.8422,0 -2.8422,-1.477942 0,-0.139526 0.0879,-0.227375 0.093,-0.09302 0.23254,-0.09302 h 0.76998 q 0.37207,0 0.62528,0.315226 0.25322,0.310057 0.99735,0.310057 1.18339,0 1.18339,-0.496092 0,-0.232543 -0.40307,-0.387572 -0.39791,-0.155029 -0.97669,-0.273884 -0.57877,-0.124023 -1.15238,-0.299722 -0.56843,-0.180867 -0.97151,-0.578775 -0.40307,-0.397907 -0.40307,-0.992184 z"
       id="path1293"
       style="fill:url(#linearGradient1328)" />
    <path
       d="m 128.98783,23.316393 q -0.79582,-0.754473 -0.79582,-2.170403 0,-1.421098 0.80098,-2.180739 0.80098,-0.764808 2.22208,-0.764808 1.4211,0 2.21691,0.744138 0.79582,0.73897 0.79582,2.123894 v 0.294555 q 0,0.139526 -0.093,0.232543 -0.0879,0.08785 -0.22737,0.08785 h -3.89123 q 0.0517,0.635618 0.36174,0.925005 0.31522,0.289387 1.00252,0.289387 0.68729,0 0.9405,-0.310057 0.25322,-0.310058 0.62529,-0.315226 h 0.76997 q 0.13953,0 0.22738,0.09302 0.093,0.08785 0.093,0.227375 0,1.483109 -2.8267,1.477942 -1.42626,0 -2.22207,-0.754474 z m 1.01802,-2.723339 h 2.40294 q -0.0517,-1.21956 -1.19889,-1.21956 -1.14204,0 -1.20405,1.21956 z"
       id="path1295"
       style="fill:url(#linearGradient1330)" />
    <path
       d="m 137.87614,22.846139 0.70797,-0.06201 h 0.1912 q 0.13952,0 0.22737,0.08785 0.093,0.08785 0.093,0.227376 v 0.552936 q 0,0.113688 -0.093,0.206705 -0.0879,0.08785 -0.22737,0.10852 -0.5271,0.103353 -1.37459,0.103353 -2.22208,0 -2.22208,-2.325432 V 16.87753 q 0,-0.139526 0.0879,-0.227375 0.093,-0.09302 0.22738,-0.09302 h 1.15754 q 0.13436,0 0.22221,0.09302 0.093,0.08785 0.093,0.227375 v 1.725987 h 1.44177 q 0.13436,0 0.2222,0.08785 0.093,0.08785 0.093,0.227376 v 0.614947 q 0,0.139526 -0.093,0.227376 -0.0878,0.08785 -0.2222,0.08785 h -1.44177 v 1.89652 q 0,0.527097 0.24805,0.816485 0.24804,0.284219 0.66145,0.284219 z"
       id="path1297"
       style="fill:url(#linearGradient1332)" />
    <path
       d="m 143.32799,22.070995 q 0,-0.30489 0.18087,-0.434081 0.18086,-0.134358 0.35139,-0.134358 h 0.61495 q 0.46509,0 0.70797,0.506427 0.24288,0.506428 1.09037,0.506428 l 1.80867,0.03617 q 0.9095,0 0.9095,-0.594277 0,-0.449583 -1.11104,-0.707965 -0.49609,-0.118855 -1.09554,-0.232543 -0.59944,-0.118855 -1.19372,-0.294555 -0.58911,-0.175699 -1.0852,-0.41341 -0.49609,-0.237711 -0.80615,-0.651121 -0.30489,-0.418577 -0.30489,-0.981849 0,-1.038693 0.73897,-1.596796 0.73897,-0.563272 2.54247,-0.563272 l 1.31258,0.03101 q 1.05936,0 1.90685,0.547768 0.85266,0.542601 0.85266,1.359086 0,0.30489 -0.18087,0.439249 -0.18086,0.134358 -0.34623,0.134358 h -0.61494 q -0.46509,0 -0.70797,-0.506428 -0.24288,-0.511595 -1.09037,-0.511595 l -1.55545,-0.031 q -0.90951,0 -0.90951,0.594277 0,0.32556 0.57361,0.532265 0.57877,0.206705 1.39526,0.366902 0.82165,0.155029 1.64847,0.377236 0.82682,0.222208 1.40043,0.733803 0.57877,0.506428 0.57877,1.266069 0,1.038693 -0.74413,1.601964 -0.73898,0.558104 -2.53731,0.558104 l -1.56579,-0.03101 q -1.05936,0 -1.91202,-0.542601 -0.85266,-0.547768 -0.85266,-1.364253 z"
       id="path1299"
       style="fill:url(#linearGradient1334)" />
    <path
       d="m 154.58825,22.846139 0.70796,-0.06201 h 0.1912 q 0.13953,0 0.22738,0.08785 0.093,0.08785 0.093,0.227376 v 0.552936 q 0,0.113688 -0.093,0.206705 -0.0879,0.08785 -0.22738,0.10852 -0.52709,0.103353 -1.37459,0.103353 -2.22207,0 -2.22207,-2.325432 V 16.87753 q 0,-0.139526 0.0878,-0.227375 0.093,-0.09302 0.22738,-0.09302 h 1.15755 q 0.13436,0 0.22221,0.09302 0.093,0.08785 0.093,0.227375 v 1.725987 h 1.44177 q 0.13436,0 0.22221,0.08785 0.093,0.08785 0.093,0.227376 v 0.614947 q 0,0.139526 -0.093,0.227376 -0.0879,0.08785 -0.22221,0.08785 h -1.44177 v 1.89652 q 0,0.527097 0.24805,0.816485 0.24805,0.284219 0.66146,0.284219 z"
       id="path1301"
       style="fill:url(#linearGradient1336)" />
    <path
       d="m 157.08938,23.326728 q -0.80615,-0.744138 -0.80615,-2.191073 0,-1.452104 0.80615,-2.191074 0.80615,-0.744138 2.31509,-0.744138 1.51412,0 2.32027,0.744138 0.80615,0.73897 0.80615,2.191074 0,1.446935 -0.80615,2.191073 -0.80615,0.744139 -2.32027,0.744139 -1.50894,0 -2.31509,-0.744139 z m 1.30741,-3.534656 q -0.3204,0.418577 -0.3204,1.338415 0,0.919838 0.3204,1.343583 0.32039,0.423745 1.00768,0.423745 0.69247,0 1.01286,-0.423745 0.32556,-0.423745 0.32556,-1.343583 0,-0.919838 -0.32556,-1.338415 -0.32039,-0.418578 -1.01286,-0.418578 -0.68729,0 -1.00768,0.418578 z"
       id="path1303"
       style="fill:url(#linearGradient1338)" />
    <path
       d="m 167.39879,19.616372 -0.79581,-0.031 q -0.69763,0 -1.33325,0.764808 v 3.302114 q 0,0.139526 -0.093,0.227375 -0.0878,0.08785 -0.2222,0.08785 h -1.15755 q -0.13953,0 -0.22738,-0.08785 -0.0879,-0.08785 -0.0879,-0.227375 v -5.028101 q 0,-0.139526 0.0879,-0.227376 0.093,-0.09302 0.22738,-0.09302 h 1.15755 q 0.13952,0 0.22737,0.09302 0.0879,0.08785 0.0879,0.227376 v 0.32556 q 0.5271,-0.382404 1.01286,-0.563271 0.49092,-0.186034 1.28157,-0.186034 0.13952,0 0.22737,0.09302 0.093,0.08785 0.093,0.222208 v 0.785479 q 0,0.139526 -0.093,0.227376 -0.0879,0.08785 -0.22737,0.08785 z"
       id="path1305"
       style="fill:url(#linearGradient1340)" />
    <path
       d="m 169.04727,23.316393 q -0.79582,-0.754473 -0.79582,-2.170403 0,-1.421098 0.80098,-2.180739 0.80099,-0.764808 2.22208,-0.764808 1.4211,0 2.21691,0.744138 0.79582,0.73897 0.79582,2.123894 v 0.294555 q 0,0.139526 -0.093,0.232543 -0.0879,0.08785 -0.22737,0.08785 h -3.89123 q 0.0517,0.635618 0.36174,0.925005 0.31522,0.289387 1.00252,0.289387 0.68729,0 0.9405,-0.310057 0.25322,-0.310058 0.62529,-0.315226 h 0.76997 q 0.13953,0 0.22738,0.09302 0.093,0.08785 0.093,0.227375 0,1.483109 -2.82669,1.477942 -1.42627,0 -2.22208,-0.754474 z m 1.01802,-2.723339 h 2.40294 q -0.0517,-1.21956 -1.19888,-1.21956 -1.14205,0 -1.20406,1.21956 z"
       id="path1307"
       style="fill:url(#linearGradient1342)" />
  </g>
</svg>
