{"accessors":[{"bufferView":0,"componentType":5123,"count":12288,"max":[2396],"min":[0],"type":"SCALAR"},{"bufferView":1,"componentType":5126,"count":2397,"max":[49.114192962646484,45.06343078613281,28.61170196533203],"min":[-42.91755294799805,0.0,-28.61170196533203],"type":"VEC3"},{"bufferView":2,"componentType":5126,"count":2397,"max":[0.9994003176689148,1.0,0.9999986290931702],"min":[-0.9995805621147156,-1.0,-0.9999988675117493],"type":"VEC3"},{"bufferView":3,"componentType":5126,"count":2397,"max":[2.0,1.0],"min":[0.0,-1.0],"type":"VEC2"}],"asset":{"generator":"Soft8Soft Verge3D for 3ds Max plug-in","version":"2.0"},"bufferViews":[{"buffer":0,"byteLength":24576,"byteOffset":0,"target":34963},{"buffer":0,"byteLength":28764,"byteOffset":24576,"target":34962},{"buffer":0,"byteLength":28764,"byteOffset":53340,"target":34962},{"buffer":0,"byteLength":19176,"byteOffset":82104,"target":34962}],"buffers":[{"byteLength":101280,"uri":"template.bin"}],"cameras":[{"extensions":{"S8S_v3d_camera":{"controls":"ORBIT","enablePan":true,"moveSpeed":1,"orbitMaxDistance":10000,"orbitMaxPolarAngle":3.141592653589793,"orbitMinDistance":0,"orbitMinPolarAngle":0,"orbitTarget":[0,0,0],"rotateSpeed":1,"viewportFitInitialAspect":1.3333333333333333,"viewportFitType":"VERTICAL"}},"name":"__DEFAULT__","perspective":{"aspectRatio":1.3333333333333333,"yfov":0.6024156981946759,"zfar":1000,"znear":0.1},"type":"perspective"}],"extensions":{"S8S_v3d_clipping_planes":{},"S8S_v3d_curves":{},"S8S_v3d_light_probes":{},"S8S_v3d_lights":{"lights":[{"color":[1,1,1],"decay":0,"intensity":3.141592653589793,"name":"__DEFAULT__","profile":"max","type":"point"},{"color":[0.0,0.0,0.0],"intensity":1,"name":"__AMBIENT__","profile":"max","type":"ambient"}]}},"extensionsUsed":["S8S_v3d_materials","S8S_v3d_camera","S8S_v3d_lights","S8S_v3d_node","S8S_v3d_light_probes","S8S_v3d_clipping_planes","S8S_v3d_curves","S8S_v3d_scene"],"materials":[{"doubleSided":false,"extensions":{"S8S_v3d_materials":{"gtaoVisible":true,"nodeGraph":{"edges":[{"fromNode":1,"fromOutput":0,"toInput":0,"toNode":0},{"fromNode":1,"fromOutput":1,"toInput":1,"toNode":0}],"nodes":[{"inputs":[[1,1,1,1]],"is_active_output":true,"name":"MaxOutput","outputs":[],"type":"OUTPUT_MX"},{"brdfCurve":5.0,"brdfHigh":1.0,"brdfLow":0.05000000074505806,"brdfMode":true,"emitLuminance":1500.0,"inputFactors":[0,0,0,0,0,0,0,0,0,0,0,0,0,0,0,0,0,0,0,0,0,0,0,0,0],"inputs":[1.0,[0.3411764705882353,0.8823529411764706,0.3411764705882353,1.0],1.0,[1.0,1.0,1.0,1.0],0.20000000298023224,0.0,0.0,1.0,0.0,0.0,[1.0,1.0,1.0,1.0],0.0,1.5199999809265137,0.0,[1.0,1.0,1.0,1.0],1.0,0.0,[1.0,1.0,1.0,1.0],0.0,[1.0,1.0,1.0,1.0],0.0,[0,0,0],[0,0,0],0,1],"is_active_output":false,"name":"__DEFAULT__2930166695280","outputs":[[0,0,0,0]],"roughnessInv":false,"thinWalled":false,"transRoughnessInv":false,"transRoughnessLock":true,"type":"PHYSICAL_MX"}]},"profile":"max"}},"name":"__DEFAULT__2930166695280"},{"extensions":{"S8S_v3d_materials":{"nodeGraph":{"edges":[],"nodes":[{"inputs":[[0.0,0.0,0.0,1]],"is_active_output":true,"name":"World Output","outputs":[],"type":"OUTPUT_MX"}]},"profile":"max"}},"name":"Verge3D_Environment"}],"meshes":[{"name":"Teapot001","primitives":[{"attributes":{"NORMAL":2,"POSITION":1,"TEXCOORD_0":3},"indices":0,"material":0,"mode":4}]}],"nodes":[{"extensions":{"S8S_v3d_node":{"frustumCulling":true,"hidden":false,"hidpiCompositing":false,"renderOrder":0,"useCastShadows":true,"useShadows":true}},"mesh":0,"name":"Teapot001","translation":[0.0,-10.0,-0.0]},{"camera":0,"children":[2],"name":"__DEFAULT_CAMERA__","rotation":[0.8923991322517395,-0.36964383721351624,-0.09904573857784271,-0.23911753296852112],"scale":[1.0,1.0,1.0000001192092896],"translation":[-153.09310913085938,124.99998474121094,153.09310913085938]},{"extensions":{"S8S_v3d_lights":{"light":0}},"name":"__DEFAULT_LIGHT__","rotation":[3.774895063202166e-08,-0.0,-0.0,1.0],"scale":[1.0,1.0,1.0],"translation":[230.07936096191406,345.1190185546875,460.1587219238281]},{"extensions":{"S8S_v3d_lights":{"light":1}},"name":"__AMBIENT__","rotation":[-0.7071068286895752,-0.0,-0.0,0.7071067690849304],"scale":[1.0,1.0,1.0],"translation":[0.0,0.0,0.0]}],"scene":0,"scenes":[{"extensions":{"S8S_v3d_scene":{"aaMethod":"AUTO","iblEnvironmentMode":"PMREM","physicallyCorrectLights":true,"pmremMaxTileSize":256,"shadowMap":{"esmDistanceScale":0.30000001192092896,"renderReverseSided":false,"renderSingleSided":true,"type":"PCFPOISSON"},"unitsScaleFactor":1.0,"worldMaterial":1}},"extras":{"animFrameRate":30,"coordSystem":"Z_UP_RIGHT"},"name":"Scene","nodes":[0,1,3]}]}
