<?xml version="1.0" encoding="UTF-8" standalone="no"?>
<svg
   id="svg30184"
   version="1.1"
   viewBox="0 0 7.4083335 7.4083335"
   height="28"
   width="28"
   sodipodi:docname="app_template_new.svg"
   inkscape:version="1.1.2 (b8e25be833, 2022-02-05)"
   xmlns:inkscape="http://www.inkscape.org/namespaces/inkscape"
   xmlns:sodipodi="http://sodipodi.sourceforge.net/DTD/sodipodi-0.dtd"
   xmlns:xlink="http://www.w3.org/1999/xlink"
   xmlns="http://www.w3.org/2000/svg"
   xmlns:svg="http://www.w3.org/2000/svg"
   xmlns:rdf="http://www.w3.org/1999/02/22-rdf-syntax-ns#"
   xmlns:cc="http://creativecommons.org/ns#"
   xmlns:dc="http://purl.org/dc/elements/1.1/">
  <sodipodi:namedview
     id="namedview7"
     pagecolor="#505050"
     bordercolor="#eeeeee"
     borderopacity="1"
     inkscape:pageshadow="0"
     inkscape:pageopacity="0"
     inkscape:pagecheckerboard="0"
     showgrid="false"
     inkscape:zoom="4.9930556"
     inkscape:cx="15.121001"
     inkscape:cy="-3.6050069"
     inkscape:window-width="1920"
     inkscape:window-height="1137"
     inkscape:window-x="-8"
     inkscape:window-y="-8"
     inkscape:window-maximized="1"
     inkscape:current-layer="svg30184" />
  <defs
     id="defs30178">
    <linearGradient
       inkscape:collect="always"
       xlink:href="#linearGradient3077"
       id="linearGradient149701"
       gradientUnits="userSpaceOnUse"
       gradientTransform="translate(-99.188077,65.304743)"
       x1="333.53189"
       y1="105.25716"
       x2="339.22046"
       y2="99.237892" />
    <linearGradient
       inkscape:collect="always"
       id="linearGradient3077">
      <stop
         style="stop-color:#0048a5;stop-opacity:1"
         offset="0"
         id="stop3073" />
      <stop
         style="stop-color:#4b86d1;stop-opacity:1"
         offset="1"
         id="stop3075" />
    </linearGradient>
  </defs>
  <metadata
     id="metadata30181">
    <rdf:RDF>
      <cc:Work
         rdf:about="">
        <dc:format>image/svg+xml</dc:format>
        <dc:type
           rdf:resource="http://purl.org/dc/dcmitype/StillImage" />
      </cc:Work>
    </rdf:RDF>
  </metadata>
  <g
     id="g149871"
     transform="translate(-232.72309,-164.31109)"
     inkscape:export-filename="D:\repos\art\design\app_manager\maket\default\10_settings-templates.png"
     inkscape:export-xdpi="96"
     inkscape:export-ydpi="96"
     style="display:inline">
    <path
       style="font-style:normal;font-variant:normal;font-weight:normal;font-stretch:normal;font-size:7.64731px;line-height:1.25;font-family:'Font Awesome 5 Free';-inkscape-font-specification:'Font Awesome 5 Free';letter-spacing:0px;word-spacing:0px;fill:url(#linearGradient149701);fill-opacity:1;stroke:none;stroke-width:0.191183"
       d="m 236.42726,164.31109 c -2.04624,0 -3.70417,1.65792 -3.70417,3.70417 0,2.04625 1.65793,3.70416 3.70417,3.70416 2.04626,0 3.70416,-1.65791 3.70416,-3.70416 0,-2.04625 -1.6579,-3.70417 -3.70416,-3.70417 z"
       id="path149668" />
    <path
       d="m 236.42725,165.60093 c -1.33372,0 -2.41432,1.0806 -2.41432,2.41432 0,1.33372 1.0806,2.41433 2.41432,2.41433 1.33372,0 2.41433,-1.08061 2.41433,-2.41433 0,-1.33372 -1.08061,-2.41432 -2.41433,-2.41432 z m 1.40187,2.68691 c 0,0.0682 -0.0584,0.11682 -0.11683,0.11682 h -0.89563 v 0.89564 c 0,0.0681 -0.0584,0.11682 -0.11682,0.11682 h -0.54517 c -0.0682,0 -0.11683,-0.0487 -0.11683,-0.11682 v -0.89564 h -0.89563 c -0.0682,0 -0.11682,-0.0487 -0.11682,-0.11682 v -0.54517 c 0,-0.0584 0.0487,-0.11682 0.11682,-0.11682 h 0.89563 v -0.89564 c 0,-0.0584 0.0487,-0.11682 0.11683,-0.11682 h 0.54517 c 0.0584,0 0.11682,0.0584 0.11682,0.11682 v 0.89564 h 0.89563 c 0.0584,0 0.11683,0.0584 0.11683,0.11682 z"
       style="font-size:4.98441px;line-height:1.25;font-family:'Font Awesome 5 Free';-inkscape-font-specification:'Font Awesome 5 Free';letter-spacing:0px;word-spacing:0px;fill:#ffffff;stroke-width:0.12461"
       id="path149863" />
  </g>
</svg>
