<?xml version="1.0" encoding="utf-8"?>
<!-- Generator: Adobe Illustrator 26.0.0, SVG Export Plug-In . SVG Version: 6.00 Build 0)  -->
<svg version="1.1"
	 id="svg7898" sodipodi:docname="app_icon_html.svg" xmlns:cc="http://creativecommons.org/ns#" xmlns:dc="http://purl.org/dc/elements/1.1/" xmlns:inkscape="http://www.inkscape.org/namespaces/inkscape" xmlns:rdf="http://www.w3.org/1999/02/22-rdf-syntax-ns#" xmlns:sodipodi="http://sodipodi.sourceforge.net/DTD/sodipodi-0.dtd" xmlns:svg="http://www.w3.org/2000/svg"
	 xmlns="http://www.w3.org/2000/svg" xmlns:xlink="http://www.w3.org/1999/xlink" x="0px" y="0px" viewBox="0 0 26 28"
	 style="enable-background:new 0 0 26 28;" xml:space="preserve">
<style type="text/css">
	.st0{fill:#1F97FF;}
</style>
<path class="st0" d="M0,3.7v20.9h26V3.7H0z M8.3,19c-0.1,0.1-0.4,0.1-0.5,0l-4.4-4.1c-0.1-0.1-0.1-0.4,0-0.5l4.4-4.1
	C7.8,10.2,8,10.1,8,10.1c0.1,0,0.2,0,0.2,0.1l1.3,1.4c0.2,0.1,0.1,0.4,0,0.5l-2.7,2.4L9.6,17c0.1,0.1,0.2,0.4,0,0.5L8.3,19z
	 M11.7,22.3l-1.8-0.6c-0.2-0.1-0.3-0.2-0.2-0.4l4.1-14.2c0-0.1,0.2-0.2,0.3-0.2c0,0,0.1,0,0.2,0l1.8,0.6c0.2,0,0.3,0.2,0.2,0.4
	l-4.1,14.2C12.1,22.3,12,22.4,11.7,22.3z M22.6,14.8L18.2,19c-0.1,0.1-0.4,0.1-0.5,0l-1.3-1.4c-0.2-0.2-0.1-0.4,0-0.5l2.8-2.4
	l-2.8-2.4c-0.1-0.2-0.1-0.4,0-0.5l1.3-1.4c0.1-0.1,0.1-0.1,0.2-0.1c0.1,0,0.2,0,0.3,0.1l4.4,4.1C22.8,14.5,22.8,14.7,22.6,14.8z"/>
</svg>
