<?xml version="1.0" encoding="UTF-8" standalone="no"?>
<!-- Created with Inkscape (http://www.inkscape.org/) -->

<svg
   width="40"
   height="30"
   viewBox="0 0 10.583333 7.9375005"
   version="1.1"
   id="svg74200"
   inkscape:version="1.1.2 (b8e25be833, 2022-02-05)"
   sodipodi:docname="demo_store_icon_maya.svg"
   xmlns:inkscape="http://www.inkscape.org/namespaces/inkscape"
   xmlns:sodipodi="http://sodipodi.sourceforge.net/DTD/sodipodi-0.dtd"
   xmlns:xlink="http://www.w3.org/1999/xlink"
   xmlns="http://www.w3.org/2000/svg"
   xmlns:svg="http://www.w3.org/2000/svg">
  <sodipodi:namedview
     id="namedview74202"
     pagecolor="#505050"
     bordercolor="#eeeeee"
     borderopacity="1"
     inkscape:pageshadow="0"
     inkscape:pageopacity="0"
     inkscape:pagecheckerboard="0"
     inkscape:document-units="mm"
     showgrid="false"
     units="px"
     inkscape:zoom="5.1241863"
     inkscape:cx="4.3909411"
     inkscape:cy="0.19515294"
     inkscape:window-width="1920"
     inkscape:window-height="1137"
     inkscape:window-x="-8"
     inkscape:window-y="-8"
     inkscape:window-maximized="1"
     inkscape:current-layer="layer1" />
  <defs
     id="defs74197">
    <linearGradient
       inkscape:collect="always"
       xlink:href="#linearGradient2831"
       id="linearGradient21270"
       gradientUnits="userSpaceOnUse"
       x1="150.82217"
       y1="165.62872"
       x2="159.75621"
       y2="165.62872"
       gradientTransform="matrix(1.0127223,0,0,1,-149.54764,-157.82612)" />
    <linearGradient
       id="linearGradient2831"
       inkscape:collect="always">
      <stop
         id="stop2827"
         offset="0"
         style="stop-color:#e6162c;stop-opacity:1" />
      <stop
         id="stop2829"
         offset="1"
         style="stop-color:#ed7f8c;stop-opacity:1" />
    </linearGradient>
  </defs>
  <g
     inkscape:label="Layer 1"
     inkscape:groupmode="layer"
     id="layer1">
    <g
       id="g74473"
       transform="translate(-3.1911898,-3.0535)">
      <path
         style="display:inline;fill:url(#linearGradient21270);fill-opacity:1;stroke:none;stroke-width:0.266261px;stroke-linecap:butt;stroke-linejoin:miter;stroke-opacity:1"
         d="M 13.774523,3.0535 H 3.19119 v 7.9375 h 8.214971 z"
         id="path21268"
         inkscape:export-filename="D:\repos\art\design\app_manager\maket\default\21-demo-store.png"
         inkscape:export-xdpi="96"
         inkscape:export-ydpi="96" />
      <path
         style="font-style:normal;font-variant:normal;font-weight:normal;font-stretch:normal;font-size:5.46237px;line-height:1.25;font-family:'Font Awesome 5 Free';-inkscape-font-specification:'Font Awesome 5 Free';letter-spacing:0px;word-spacing:0px;display:inline;fill:#fbfbfb;fill-opacity:1;stroke:none;stroke-width:0.185214"
         d="m 6.176,5.53033 h 0.84698 c 0.0541,0 0.10546,0.019 0.15399,0.0579 0.0485,0.0388 0.0811,0.0855 0.0977,0.13952 L 7.88858,7.50439 8.5025,5.72775 C 8.5191,5.67365 8.5512,5.62706 8.5996,5.58823 8.6482,5.54943 8.70004,5.53033 8.75412,5.53033 h 0.84645 c 0.0541,0 0.0994,0.019 0.13539,0.0579 0.0375,0.0388 0.0558,0.0868 0.0558,0.14366 v 2.58227 c 0,0.0569 -0.019,0.10482 -0.0579,0.14367 -0.0375,0.0374 -0.0834,0.0563 -0.13745,0.0563 H 9.22226 c -0.0541,0 -0.10068,-0.0188 -0.13952,-0.0563 -0.0374,-0.0388 -0.0563,-0.0868 -0.0563,-0.14367 V 6.28172 L 8.29212,8.32656 c -0.0194,0.0513 -0.0538,0.0958 -0.10231,0.13332 -0.0485,0.0361 -0.0994,0.0543 -0.15349,0.0543 H 7.73813 c -0.0541,0 -0.1049,-0.0182 -0.15345,-0.0543 -0.0472,-0.0374 -0.0815,-0.082 -0.10234,-0.13332 L 6.7501,6.28172 v 2.03244 c 0,0.0569 -0.0195,0.10482 -0.0584,0.14367 -0.0375,0.0374 -0.0834,0.0563 -0.13748,0.0563 H 6.1801 c -0.0541,0 -0.1007,-0.0188 -0.13954,-0.0563 -0.0389,-0.0388 -0.0579,-0.0868 -0.0579,-0.14367 V 5.73189 c 0,-0.0569 0.0183,-0.10483 0.0558,-0.14366 0.0375,-0.0388 0.0834,-0.0579 0.13746,-0.0579 z"
         id="path21612"
         inkscape:export-filename="D:\repos\art\design\app_manager\maket\default\21-demo-store.png"
         inkscape:export-xdpi="96"
         inkscape:export-ydpi="96" />
    </g>
  </g>
</svg>
