<?xml version="1.0" encoding="UTF-8" standalone="no"?>
<!-- Created with Inkscape (http://www.inkscape.org/) -->

<svg
   width="60"
   height="60"
   viewBox="0 0 15.875 15.875"
   version="1.1"
   id="svg4407"
   inkscape:version="1.1.2 (b8e25be833, 2022-02-05)"
   sodipodi:docname="demo_store_category_icon_tutorials.svg"
   xmlns:inkscape="http://www.inkscape.org/namespaces/inkscape"
   xmlns:sodipodi="http://sodipodi.sourceforge.net/DTD/sodipodi-0.dtd"
   xmlns:xlink="http://www.w3.org/1999/xlink"
   xmlns="http://www.w3.org/2000/svg"
   xmlns:svg="http://www.w3.org/2000/svg"
   xmlns:rdf="http://www.w3.org/1999/02/22-rdf-syntax-ns#"
   xmlns:cc="http://creativecommons.org/ns#"
   xmlns:dc="http://purl.org/dc/elements/1.1/">
  <defs
     id="defs4401">
    <linearGradient
       id="linearGradient1935"
       inkscape:collect="always">
      <stop
         id="stop1931"
         offset="0"
         style="stop-color:#dbdbdb;stop-opacity:1" />
      <stop
         id="stop1933"
         offset="1"
         style="stop-color:#ffffff;stop-opacity:1" />
    </linearGradient>
    <linearGradient
       inkscape:collect="always"
       xlink:href="#linearGradient1935"
       id="linearGradient4985"
       x1="4.2322721"
       y1="65.823776"
       x2="12.521172"
       y2="56.894089"
       gradientUnits="userSpaceOnUse"
       gradientTransform="translate(18.594628,-1.632148)" />
    <linearGradient
       inkscape:collect="always"
       xlink:href="#linearGradient1935"
       id="linearGradient5146"
       gradientUnits="userSpaceOnUse"
       x1="5.6470833"
       y1="73.281136"
       x2="11.827924"
       y2="65.343636"
       gradientTransform="translate(18.648419,38.181878)" />
    <linearGradient
       inkscape:collect="always"
       xlink:href="#linearGradient1935"
       id="linearGradient5186"
       gradientUnits="userSpaceOnUse"
       gradientTransform="translate(18.354274,38.059316)"
       x1="4.8394475"
       y1="89.146431"
       x2="12.297809"
       y2="81.605804" />
    <linearGradient
       inkscape:collect="always"
       xlink:href="#linearGradient1935"
       id="linearGradient5609"
       x1="472.50946"
       y1="151.21358"
       x2="480.27319"
       y2="142.42041"
       gradientUnits="userSpaceOnUse"
       gradientTransform="translate(-467.9861,141.96486)" />
  </defs>
  <sodipodi:namedview
     id="base"
     pagecolor="#ffffff"
     bordercolor="#666666"
     borderopacity="1.0"
     inkscape:pageopacity="0.0"
     inkscape:pageshadow="2"
     inkscape:zoom="7.5366211"
     inkscape:cx="19.040363"
     inkscape:cy="37.284613"
     inkscape:document-units="mm"
     inkscape:current-layer="layer1"
     showgrid="false"
     units="px"
     inkscape:window-width="1920"
     inkscape:window-height="1137"
     inkscape:window-x="-8"
     inkscape:window-y="-8"
     inkscape:window-maximized="1"
     inkscape:pagecheckerboard="0" />
  <metadata
     id="metadata4404">
    <rdf:RDF>
      <cc:Work
         rdf:about="">
        <dc:format>image/svg+xml</dc:format>
        <dc:type
           rdf:resource="http://purl.org/dc/dcmitype/StillImage" />
      </cc:Work>
    </rdf:RDF>
  </metadata>
  <g
     inkscape:label="Layer 1"
     inkscape:groupmode="layer"
     id="layer1"
     transform="translate(0,-281.12498)">
    <path
       d="m 12.56771,290.71613 v -5.95312 c 0,-0.54798 -0.44442,-0.99219 -0.99219,-0.99219 H 5.29167 c -1.09596,0 -1.98438,0.88842 -1.98438,1.98438 v 6.61457 c 0,1.09596 0.88842,1.98438 1.98438,1.98438 h 6.61458 c 0.36525,0 0.66146,-0.29621 0.66146,-0.64288 0,-0.24223 -0.13657,-0.44481 -0.33073,-0.56015 v -1.68176 c 0.20257,-0.19926 0.33073,-0.45972 0.33073,-0.75323 z M 6.26525,286.41665 H 10.234 c 0.2005,0 0.34933,0.14882 0.34933,0.33072 0,0.1819 -0.14883,0.33073 -0.33073,0.33073 H 6.26525 c -0.1633,0 -0.31212,-0.14882 -0.31212,-0.33073 0,-0.1819 0.14882,-0.33072 0.31212,-0.33072 z m 0,1.32291 H 10.234 c 0.2005,0 0.34933,0.14883 0.34933,0.33073 0,0.1819 -0.14883,0.33072 -0.33073,0.33072 H 6.26525 c -0.1633,0 -0.31212,-0.14882 -0.31212,-0.33072 0,-0.1819 0.14882,-0.33073 0.31212,-0.33073 z m 4.97953,5.29167 H 5.29167 c -0.36526,0 -0.66147,-0.29621 -0.66147,-0.66146 0,-0.36525 0.29621,-0.66147 0.66147,-0.66147 h 5.95311 z"
       id="path5576"
       style="display:inline;fill:url(#linearGradient5609);fill-opacity:1;stroke-width:0.0206705" />
  </g>
</svg>
