<?xml version="1.0" encoding="UTF-8" standalone="no"?>
<!-- Created with Inkscape (http://www.inkscape.org/) -->

<svg
   width="60"
   height="60"
   viewBox="0 0 15.875 15.875"
   version="1.1"
   id="svg4407"
   inkscape:version="1.1.2 (b8e25be833, 2022-02-05)"
   sodipodi:docname="toolbar_store_icon_all.svg"
   xmlns:inkscape="http://www.inkscape.org/namespaces/inkscape"
   xmlns:sodipodi="http://sodipodi.sourceforge.net/DTD/sodipodi-0.dtd"
   xmlns:xlink="http://www.w3.org/1999/xlink"
   xmlns="http://www.w3.org/2000/svg"
   xmlns:svg="http://www.w3.org/2000/svg"
   xmlns:rdf="http://www.w3.org/1999/02/22-rdf-syntax-ns#"
   xmlns:cc="http://creativecommons.org/ns#"
   xmlns:dc="http://purl.org/dc/elements/1.1/">
  <defs
     id="defs4401">
    <linearGradient
       id="linearGradient1935"
       inkscape:collect="always">
      <stop
         id="stop1931"
         offset="0"
         style="stop-color:#dbdbdb;stop-opacity:1" />
      <stop
         id="stop1933"
         offset="1"
         style="stop-color:#ffffff;stop-opacity:1" />
    </linearGradient>
    <linearGradient
       inkscape:collect="always"
       xlink:href="#linearGradient1935"
       id="linearGradient4985"
       x1="4.2322721"
       y1="65.823776"
       x2="12.521172"
       y2="56.894089"
       gradientUnits="userSpaceOnUse"
       gradientTransform="translate(18.594628,-1.632148)" />
    <linearGradient
       inkscape:collect="always"
       xlink:href="#linearGradient1935"
       id="linearGradient5146"
       gradientUnits="userSpaceOnUse"
       x1="5.6470833"
       y1="73.281136"
       x2="11.827924"
       y2="65.343636"
       gradientTransform="translate(18.648419,38.181878)" />
    <linearGradient
       inkscape:collect="always"
       xlink:href="#linearGradient1935"
       id="linearGradient5186"
       gradientUnits="userSpaceOnUse"
       gradientTransform="translate(18.354274,38.059316)"
       x1="4.8394475"
       y1="89.146431"
       x2="12.297809"
       y2="81.605804" />
    <linearGradient
       inkscape:collect="always"
       xlink:href="#linearGradient1935"
       id="linearGradient14408"
       x1="418.66003"
       y1="180.89949"
       x2="562.18164"
       y2="51.68071"
       gradientUnits="userSpaceOnUse"
       gradientTransform="matrix(0.07118057,0,0,0.07118057,-26.886633,280.60589)" />
  </defs>
  <sodipodi:namedview
     id="base"
     pagecolor="#ffffff"
     bordercolor="#666666"
     borderopacity="1.0"
     inkscape:pageopacity="0.0"
     inkscape:pageshadow="2"
     inkscape:zoom="5.3291959"
     inkscape:cx="4.784962"
     inkscape:cy="13.510481"
     inkscape:document-units="mm"
     inkscape:current-layer="layer1"
     showgrid="false"
     units="px"
     inkscape:window-width="1920"
     inkscape:window-height="1137"
     inkscape:window-x="-8"
     inkscape:window-y="-8"
     inkscape:window-maximized="1"
     inkscape:pagecheckerboard="0" />
  <metadata
     id="metadata4404">
    <rdf:RDF>
      <cc:Work
         rdf:about="">
        <dc:format>image/svg+xml</dc:format>
        <dc:type
           rdf:resource="http://purl.org/dc/dcmitype/StillImage" />
      </cc:Work>
    </rdf:RDF>
  </metadata>
  <g
     inkscape:label="Layer 1"
     inkscape:groupmode="layer"
     id="layer1"
     transform="translate(0,-281.12498)">
    <path
       d="m 5.7547636,284.99517 1.8079861,-0.68552 c 0.2410705,-0.0913 0.5084955,-0.0913 0.749566,0 l 1.8079763,0.68552 c 0.408685,0.15537 0.679885,0.54786 0.679885,0.98612 v 2.1127 c 0.0245,0.008 0.04891,0.0151 0.07342,0.008 l 1.807986,0.70248 c 0.408684,0.15443 0.679876,0.54804 0.679876,0.98497 v 2.24492 c 0,0.4181 -0.246716,0.79664 -0.630914,0.96427 l -1.807977,0.79475 c -0.269313,0.12053 -0.578186,0.12053 -0.847499,0 l -2.1375687,-0.9379 -2.137569,0.9379 c -0.2693033,0.12053 -0.5781764,0.12053 -0.8474893,0 L 3.1437016,292.99826 C 2.7608283,292.83063 2.513541,292.45209 2.513541,292.03399 v -2.24492 c 0,-0.43693 0.2710101,-0.83054 0.6808195,-0.98497 l 1.8070517,-0.70248 c 0.024505,0.008 0.048914,0 0.073419,-0.008 v -2.1127 c 0,-0.43826 0.2711913,-0.83075 0.6798756,-0.98612 z m 2.2355018,0.15971 c -0.033849,-0.0131 -0.088579,-0.0131 -0.1054749,0 l -1.4765153,0.55953 1.5122997,0.58666 1.5462058,-0.58666 z m 1.9059094,3.05023 v -1.68746 l -1.5518505,0.59513 v 1.67992 z m -4.4672278,0.75897 c -0.033849,-0.0132 -0.088579,-0.0132 -0.1054654,0 l -1.4763342,0.55935 1.5290716,0.58571 1.5292528,-0.58571 z m 0.3540589,3.84951 1.55186,-0.68176 v -1.80611 l -1.55186,0.59513 z m 3.1865782,-3.29016 1.5292619,0.58571 1.529253,-0.58571 -1.476525,-0.55935 c -0.03385,-0.0132 -0.08858,-0.0132 -0.105465,0 z m 3.4879089,2.51047 v -1.70818 l -1.55186,0.59513 v 1.89274 l 1.46146,-0.64221 c 0.05463,-0.0245 0.09039,-0.0771 0.09039,-0.13748 z"
       id="path14393"
       style="display:inline;fill:url(#linearGradient14408);fill-opacity:1;stroke-width:0.0188332" />
  </g>
</svg>
