<?xml version="1.0" encoding="UTF-8" standalone="no"?>
<svg
   viewBox="0 0 60 60"
   version="1.1"
   id="svg4"
   sodipodi:docname="toolbar_icon_store.svg"
   width="60"
   height="60"
   inkscape:version="1.1.2 (b8e25be833, 2022-02-05)"
   xmlns:inkscape="http://www.inkscape.org/namespaces/inkscape"
   xmlns:sodipodi="http://sodipodi.sourceforge.net/DTD/sodipodi-0.dtd"
   xmlns:xlink="http://www.w3.org/1999/xlink"
   xmlns="http://www.w3.org/2000/svg"
   xmlns:svg="http://www.w3.org/2000/svg">
  <defs
     id="defs8">
    <linearGradient
       id="linearGradient1935"
       inkscape:collect="always">
      <stop
         id="stop1931"
         offset="0"
         style="stop-color:#dbdbdb;stop-opacity:1" />
      <stop
         id="stop1933"
         offset="1"
         style="stop-color:#ffffff;stop-opacity:1" />
    </linearGradient>
    <linearGradient
       inkscape:collect="always"
       xlink:href="#linearGradient1935"
       id="linearGradient847"
       x1="10.834553"
       y1="49.914246"
       x2="51.479774"
       y2="11.282811"
       gradientUnits="userSpaceOnUse"
       gradientTransform="matrix(0.8541254,0,0,0.8541254,1.9200712,3.7889922)" />
  </defs>
  <sodipodi:namedview
     id="namedview6"
     pagecolor="#505050"
     bordercolor="#eeeeee"
     borderopacity="1"
     inkscape:pageshadow="0"
     inkscape:pageopacity="0"
     inkscape:pagecheckerboard="0"
     showgrid="false"
     width="60px"
     inkscape:zoom="7.9439027"
     inkscape:cx="24.861835"
     inkscape:cy="26.309486"
     inkscape:window-width="1920"
     inkscape:window-height="1177"
     inkscape:window-x="1912"
     inkscape:window-y="-8"
     inkscape:window-maximized="1"
     inkscape:current-layer="svg4" />
  <!--! Font Awesome Pro 6.0.0 by @fontawesome - https://fontawesome.com License - https://fontawesome.com/license (Commercial License) Copyright 2022 Fonticons, Inc. -->
  <path
     d="m 14.578911,12 c 0.808594,0 1.504688,0.575859 1.659376,1.371798 l 0.105469,0.878203 h 29.580468 c 1.427343,0 2.566407,1.423826 2.165626,2.858906 L 44.292973,30.61172 c -0.274218,0.970312 -1.160156,1.638281 -2.165625,1.638281 H 19.831256 L 20.478132,35.625 h 21.663279 c 0.935156,0 1.6875,0.752344 1.6875,1.687501 0,0.935155 -0.752344,1.687499 -1.6875,1.687499 h -23.12578 c -0.745312,0 -1.441407,-0.576563 -1.596094,-1.371093 L 13.182505,15.375 H 9.516412 C 8.584771,15.375 7.8289118,14.619141 7.8289118,13.6875 7.8289118,12.75586 8.584771,12 9.516412,12 Z m 2.250001,32.625 c 0,-1.863281 1.511719,-3.375 3.375,-3.375 1.863281,0 3.374999,1.511719 3.374999,3.375 0,1.863281 -1.511718,3.375 -3.374999,3.375 -1.863281,0 -3.375,-1.511719 -3.375,-3.375 z m 26.999999,0 c 0,1.863281 -1.511718,3.375 -3.375,3.375 -1.863281,0 -3.374999,-1.511719 -3.374999,-3.375 0,-1.863281 1.511718,-3.375 3.374999,-3.375 1.863282,0 3.375,1.511719 3.375,3.375 z"
     id="path2"
     style="fill:url(#linearGradient847);fill-opacity:1;stroke-width:0.0703124" />
</svg>
