{"accessors":[{"bufferView":0,"componentType":5123,"count":2904,"max":[506],"min":[0],"type":"SCALAR"},{"bufferView":1,"componentType":5126,"count":507,"max":[1.3671875,0.984375,0.8515625],"min":[-1.3671875,-0.984375,-0.8515625],"type":"VEC3"},{"bufferView":2,"componentType":5126,"count":507,"max":[0.998944878578186,0.9997304677963257,0.9999915361404419],"min":[-0.998944878578186,-0.9862927198410034,-0.9753301739692688],"type":"VEC3"}],"asset":{"generator":"Soft8Soft Verge3D for Blender add-on","version":"2.0"},"bufferViews":[{"buffer":0,"byteLength":5808,"byteOffset":0,"target":34963},{"buffer":0,"byteLength":6084,"byteOffset":5808,"target":34962},{"buffer":0,"byteLength":6084,"byteOffset":11892,"target":34962}],"buffers":[{"byteLength":17976,"uri":"template.bin"}],"cameras":[{"extensions":{"S8S_v3d_camera":{"controls":"ORBIT","enablePan":true,"moveSpeed":1.0,"orbitMaxDistance":100.0,"orbitMaxPolarAngle":3.1415927410125732,"orbitMaxZoom":100.0,"orbitMinDistance":0.0,"orbitMinPolarAngle":0.0,"orbitMinZoom":0.009999999776482582,"orbitTarget":[0.0,0.0,-0.0],"rotateSpeed":1.0,"viewportFitInitialAspect":1.7777777777777777,"viewportFitType":"HORIZONTAL"}},"name":"Camera","perspective":{"aspectRatio":1.7777777777777777,"yfov":0.5033799372418416,"zfar":100.0,"znear":0.10000000149011612},"type":"perspective"}],"extensions":{"S8S_v3d_lights":{"lights":[{"color":[1.0,1.0,1.0],"decay":2,"distance":10.00000011175871,"intensity":100.0,"name":"Lamp","profile":"blender","shadow":{"bias":-0.0018,"cameraFar":10.00000011175871,"cameraFov":0,"cameraNear":1.0007989406585693,"enabled":false,"expBias":2.5,"mapSize":512,"radius":2.0,"slopeScaledBias":2.5},"type":"point"},{"color":[1.0,1.0,1.0],"decay":2,"distance":10.00000011175871,"intensity":100.0,"name":"Lamp.001","profile":"blender","shadow":{"bias":-0.0018,"cameraFar":10.00000011175871,"cameraFov":0,"cameraNear":1.0007989406585693,"enabled":false,"expBias":2.5,"mapSize":512,"radius":2.0,"slopeScaledBias":2.5},"type":"point"}]}},"extensionsUsed":["S8S_v3d_materials","S8S_v3d_camera","S8S_v3d_lights","S8S_v3d_mesh","S8S_v3d_node","S8S_v3d_scene"],"materials":[{"extensions":{"S8S_v3d_materials":{"gtaoVisible":true,"materialIndex":0,"nodeGraph":{"edges":[{"fromNode":1,"fromOutput":0,"toInput":0,"toNode":0}],"nodes":[{"inputs":[[0,0,0,0],[0,0,0,0],[0.0,0.0,0.0]],"is_active_output":true,"name":"Material Output","outputs":[],"type":"OUTPUT_MATERIAL_BL"},{"inputs":[[0.059037838131189346,0.8000000715255737,0.0387016236782074,1.0],0.0,[0.0,0.0,0.0]],"is_active_output":false,"name":"Diffuse BSDF","outputs":[[0,0,0,0]],"type":"BSDF_DIFFUSE_BL"}]},"useCastShadows":true}},"name":"Material.003"},{"extensions":{"S8S_v3d_materials":{"gtaoVisible":true,"materialIndex":0,"nodeGraph":{"edges":[{"fromNode":0,"fromOutput":0,"toInput":0,"toNode":1}],"nodes":[{"inputs":[[0.05087608844041824,0.05087608844041824,0.05087608844041824,1.0],1.0],"is_active_output":false,"name":"Background","outputs":[[0,0,0,0]],"type":"BACKGROUND_BL"},{"inputs":[[0,0,0,0],[0,0,0,0]],"is_active_output":true,"name":"World Output","outputs":[],"type":"OUTPUT_WORLD_BL"}]},"useCastShadows":true}},"name":"Verge3D_Environment_World"}],"meshes":[{"extensions":{"S8S_v3d_mesh":{"colorLayers":{},"uvLayers":{}}},"name":"Suzanne","primitives":[{"attributes":{"NORMAL":2,"POSITION":1},"indices":0,"material":0,"mode":4}]}],"nodes":[{"extensions":{"S8S_v3d_lights":{"light":1},"S8S_v3d_node":{"frustumCulling":true,"groupNames":["Collection 1"],"hidden":false,"hidpiCompositing":false,"objectColor":[0.0,0.0,0.0],"objectIndex":0,"renderOrder":0}},"name":"Lamp.001","rotation":[-0.2841663062572479,0.7269423604011536,0.34203389286994934,0.5232754945755005],"scale":[0.9999999403953552,0.9999997019767761,0.9999999403953552],"translation":[1.8441102504730225,0.3106679916381836,3.215299129486084]},{"camera":0,"extensions":{"S8S_v3d_node":{"frustumCulling":true,"groupNames":["Collection 1"],"hidden":false,"hidpiCompositing":false,"objectColor":[0.0,0.0,0.0],"objectIndex":0,"renderOrder":0}},"name":"Camera","rotation":[-0.20997294783592224,0.3857799768447876,0.09062846004962921,0.8937962055206299],"scale":[1.0,0.9999999403953552,0.9999998807907104],"translation":[7.481131553649902,5.34366512298584,6.5076398849487305]},{"extensions":{"S8S_v3d_node":{"frustumCulling":true,"groupNames":["Collection 1"],"hidden":false,"hidpiCompositing":false,"objectColor":[1.0,1.0,1.0],"objectIndex":0,"renderOrder":0,"useShadows":true}},"mesh":0,"name":"Suzanne"},{"extensions":{"S8S_v3d_lights":{"light":0},"S8S_v3d_node":{"frustumCulling":true,"groupNames":["Collection 1"],"hidden":false,"hidpiCompositing":false,"objectColor":[0.0,0.0,0.0],"objectIndex":0,"renderOrder":0}},"name":"Lamp","rotation":[-0.2841663062572479,0.7269423604011536,0.34203389286994934,0.5232754945755005],"scale":[0.9999999403953552,0.9999997019767761,0.9999999403953552],"translation":[-1.5293667316436768,0.9370955228805542,-3.765994071960449]}],"scene":0,"scenes":[{"extensions":{"S8S_v3d_scene":{"aaMethod":"AUTO","iblEnvironmentMode":"PMREM","physicallyCorrectLights":true,"pmremMaxTileSize":256,"shadowMap":{"esmDistanceScale":1.0,"renderReverseSided":false,"renderSingleSided":true,"type":"PCFPOISSON"},"worldMaterial":1}},"extras":{"animFrameRate":24,"coordSystem":"Z_UP_RIGHT"},"name":"Scene","nodes":[0,2,3,1]}]}
